<svg width="213" height="47" viewBox="0 0 213 47" fill="none" xmlns="http://www.w3.org/2000/svg">
<rect x="0.5" y="0.5" width="212" height="46" rx="23" fill="white"/>
<rect x="0.5" y="0.5" width="212" height="46" rx="23" stroke="#B0B0B0"/>
<path d="M46.1703 28.398C45.6663 29.07 45.0423 29.556 44.2983 29.856C43.5543 30.144 42.8043 30.288 42.0483 30.288C41.0883 30.288 40.2303 30.114 39.4743 29.766C38.7183 29.406 38.0763 28.926 37.5483 28.326C37.0203 27.726 36.6183 27.036 36.3423 26.256C36.0663 25.476 35.9283 24.666 35.9283 23.826C35.9283 22.89 36.0543 22.002 36.3063 21.162C36.5703 20.31 36.9543 19.566 37.4583 18.93C37.9743 18.294 38.6103 17.79 39.3663 17.418C40.1343 17.034 41.0283 16.842 42.0483 16.842C42.7443 16.842 43.3983 16.926 44.0103 17.094C44.6343 17.25 45.1863 17.502 45.6663 17.85C46.1583 18.198 46.5663 18.642 46.8903 19.182C47.2263 19.71 47.4543 20.352 47.5743 21.108H45.8643C45.7803 20.616 45.6243 20.196 45.3963 19.848C45.1683 19.488 44.8863 19.194 44.5503 18.966C44.2143 18.738 43.8303 18.57 43.3983 18.462C42.9783 18.342 42.5283 18.282 42.0483 18.282C41.2683 18.282 40.5963 18.438 40.0323 18.75C39.4803 19.062 39.0243 19.476 38.6643 19.992C38.3163 20.496 38.0583 21.078 37.8903 21.738C37.7223 22.386 37.6383 23.052 37.6383 23.736C37.6383 24.408 37.7343 25.056 37.9263 25.68C38.1183 26.292 38.4003 26.838 38.7723 27.318C39.1443 27.786 39.6003 28.164 40.1403 28.452C40.6923 28.728 41.3283 28.866 42.0483 28.866C42.7203 28.866 43.3143 28.758 43.8303 28.542C44.3463 28.326 44.7783 28.032 45.1263 27.66C45.4863 27.276 45.7563 26.832 45.9363 26.328C46.1163 25.812 46.1943 25.26 46.1703 24.672H42.0663V23.232H47.7003V30H46.6203L46.1703 28.398ZM50.0545 17.148H51.5845V30H50.0545V17.148ZM61.6587 30H60.2187V28.524H60.1827C59.8587 29.1 59.4447 29.526 58.9407 29.802C58.4367 30.066 57.8427 30.198 57.1587 30.198C56.5467 30.198 56.0367 30.12 55.6287 29.964C55.2207 29.796 54.8907 29.562 54.6387 29.262C54.3867 28.962 54.2067 28.608 54.0987 28.2C54.0027 27.78 53.9547 27.318 53.9547 26.814V20.694H55.4847V26.994C55.4847 27.57 55.6527 28.026 55.9887 28.362C56.3247 28.698 56.7867 28.866 57.3747 28.866C57.8427 28.866 58.2447 28.794 58.5807 28.65C58.9287 28.506 59.2167 28.302 59.4447 28.038C59.6727 27.774 59.8407 27.468 59.9487 27.12C60.0687 26.76 60.1287 26.37 60.1287 25.95V20.694H61.6587V30ZM70.2747 23.682C70.1547 23.094 69.9027 22.638 69.5187 22.314C69.1347 21.99 68.6187 21.828 67.9707 21.828C67.4187 21.828 66.9567 21.93 66.5847 22.134C66.2127 22.338 65.9127 22.608 65.6847 22.944C65.4687 23.28 65.3127 23.67 65.2167 24.114C65.1207 24.546 65.0727 24.996 65.0727 25.464C65.0727 25.896 65.1207 26.316 65.2167 26.724C65.3247 27.132 65.4867 27.498 65.7027 27.822C65.9187 28.134 66.2007 28.386 66.5487 28.578C66.8967 28.77 67.3107 28.866 67.7907 28.866C68.5467 28.866 69.1347 28.668 69.5547 28.272C69.9867 27.876 70.2507 27.318 70.3467 26.598H71.9127C71.7447 27.75 71.3127 28.638 70.6167 29.262C69.9327 29.886 68.9967 30.198 67.8087 30.198C67.1007 30.198 66.4707 30.084 65.9187 29.856C65.3787 29.628 64.9227 29.304 64.5507 28.884C64.1907 28.464 63.9147 27.966 63.7227 27.39C63.5427 26.802 63.4527 26.16 63.4527 25.464C63.4527 24.768 63.5427 24.12 63.7227 23.52C63.9027 22.908 64.1727 22.38 64.5327 21.936C64.9047 21.48 65.3667 21.126 65.9187 20.874C66.4707 20.61 67.1127 20.478 67.8447 20.478C68.3727 20.478 68.8647 20.544 69.3207 20.676C69.7887 20.796 70.1967 20.988 70.5447 21.252C70.9047 21.516 71.1987 21.852 71.4267 22.26C71.6547 22.656 71.7987 23.13 71.8587 23.682H70.2747ZM74.7407 25.356C74.7407 25.92 74.8127 26.424 74.9567 26.868C75.1127 27.3 75.3227 27.666 75.5867 27.966C75.8507 28.254 76.1567 28.476 76.5047 28.632C76.8647 28.788 77.2427 28.866 77.6387 28.866C78.0347 28.866 78.4067 28.788 78.7547 28.632C79.1147 28.476 79.4267 28.254 79.6907 27.966C79.9547 27.666 80.1587 27.3 80.3027 26.868C80.4587 26.424 80.5367 25.92 80.5367 25.356C80.5367 24.792 80.4587 24.294 80.3027 23.862C80.1587 23.418 79.9547 23.046 79.6907 22.746C79.4267 22.446 79.1147 22.218 78.7547 22.062C78.4067 21.906 78.0347 21.828 77.6387 21.828C77.2427 21.828 76.8647 21.906 76.5047 22.062C76.1567 22.218 75.8507 22.446 75.5867 22.746C75.3227 23.046 75.1127 23.418 74.9567 23.862C74.8127 24.294 74.7407 24.792 74.7407 25.356ZM73.1207 25.356C73.1207 24.672 73.2167 24.036 73.4087 23.448C73.6007 22.848 73.8887 22.332 74.2727 21.9C74.6567 21.456 75.1307 21.108 75.6947 20.856C76.2587 20.604 76.9067 20.478 77.6387 20.478C78.3827 20.478 79.0307 20.604 79.5827 20.856C80.1467 21.108 80.6207 21.456 81.0047 21.9C81.3887 22.332 81.6767 22.848 81.8687 23.448C82.0607 24.036 82.1567 24.672 82.1567 25.356C82.1567 26.04 82.0607 26.676 81.8687 27.264C81.6767 27.852 81.3887 28.368 81.0047 28.812C80.6207 29.244 80.1467 29.586 79.5827 29.838C79.0307 30.078 78.3827 30.198 77.6387 30.198C76.9067 30.198 76.2587 30.078 75.6947 29.838C75.1307 29.586 74.6567 29.244 74.2727 28.812C73.8887 28.368 73.6007 27.852 73.4087 27.264C73.2167 26.676 73.1207 26.04 73.1207 25.356ZM84.8966 27.066C84.9086 27.402 84.9866 27.69 85.1306 27.93C85.2746 28.158 85.4606 28.344 85.6886 28.488C85.9286 28.62 86.1926 28.716 86.4806 28.776C86.7806 28.836 87.0866 28.866 87.3986 28.866C87.6386 28.866 87.8906 28.848 88.1546 28.812C88.4186 28.776 88.6586 28.71 88.8746 28.614C89.1026 28.518 89.2886 28.38 89.4326 28.2C89.5766 28.008 89.6486 27.768 89.6486 27.48C89.6486 27.084 89.4986 26.784 89.1986 26.58C88.8986 26.376 88.5206 26.214 88.0646 26.094C87.6206 25.962 87.1346 25.848 86.6066 25.752C86.0786 25.644 85.5866 25.5 85.1306 25.32C84.6866 25.128 84.3146 24.864 84.0146 24.528C83.7146 24.192 83.5646 23.724 83.5646 23.124C83.5646 22.656 83.6666 22.254 83.8706 21.918C84.0866 21.582 84.3566 21.312 84.6806 21.108C85.0166 20.892 85.3886 20.736 85.7966 20.64C86.2166 20.532 86.6306 20.478 87.0386 20.478C87.5666 20.478 88.0526 20.526 88.4966 20.622C88.9406 20.706 89.3306 20.862 89.6666 21.09C90.0146 21.306 90.2906 21.606 90.4946 21.99C90.6986 22.362 90.8186 22.83 90.8546 23.394H89.3246C89.3006 23.094 89.2226 22.848 89.0906 22.656C88.9586 22.452 88.7906 22.29 88.5866 22.17C88.3826 22.05 88.1546 21.966 87.9026 21.918C87.6626 21.858 87.4166 21.828 87.1646 21.828C86.9366 21.828 86.7026 21.846 86.4626 21.882C86.2346 21.918 86.0246 21.984 85.8326 22.08C85.6406 22.164 85.4846 22.284 85.3646 22.44C85.2446 22.584 85.1846 22.776 85.1846 23.016C85.1846 23.28 85.2746 23.502 85.4546 23.682C85.6466 23.85 85.8866 23.994 86.1746 24.114C86.4626 24.222 86.7866 24.318 87.1466 24.402C87.5066 24.474 87.8666 24.552 88.2266 24.636C88.6106 24.72 88.9826 24.822 89.3426 24.942C89.7146 25.062 90.0386 25.224 90.3146 25.428C90.6026 25.62 90.8306 25.866 90.9986 26.166C91.1786 26.466 91.2686 26.838 91.2686 27.282C91.2686 27.846 91.1486 28.314 90.9086 28.686C90.6806 29.058 90.3746 29.358 89.9906 29.586C89.6186 29.814 89.1926 29.97 88.7126 30.054C88.2446 30.15 87.7766 30.198 87.3086 30.198C86.7926 30.198 86.3006 30.144 85.8326 30.036C85.3646 29.928 84.9506 29.754 84.5906 29.514C84.2306 29.262 83.9426 28.938 83.7266 28.542C83.5106 28.134 83.3906 27.642 83.3666 27.066H84.8966ZM99.4226 24.456C99.3986 24.096 99.3146 23.754 99.1706 23.43C99.0386 23.106 98.8526 22.83 98.6126 22.602C98.3846 22.362 98.1086 22.176 97.7846 22.044C97.4726 21.9 97.1246 21.828 96.7406 21.828C96.3446 21.828 95.9846 21.9 95.6606 22.044C95.3486 22.176 95.0786 22.362 94.8506 22.602C94.6226 22.842 94.4426 23.124 94.3106 23.448C94.1786 23.76 94.1006 24.096 94.0766 24.456H99.4226ZM100.899 27.048C100.695 28.092 100.245 28.878 99.5486 29.406C98.8526 29.934 97.9766 30.198 96.9206 30.198C96.1766 30.198 95.5286 30.078 94.9766 29.838C94.4366 29.598 93.9806 29.262 93.6086 28.83C93.2366 28.398 92.9546 27.882 92.7626 27.282C92.5826 26.682 92.4806 26.028 92.4566 25.32C92.4566 24.612 92.5646 23.964 92.7806 23.376C92.9966 22.788 93.2966 22.278 93.6806 21.846C94.0766 21.414 94.5386 21.078 95.0666 20.838C95.6066 20.598 96.1946 20.478 96.8306 20.478C97.6586 20.478 98.3426 20.652 98.8826 21C99.4346 21.336 99.8726 21.768 100.197 22.296C100.533 22.824 100.761 23.4 100.881 24.024C101.013 24.648 101.067 25.242 101.043 25.806H94.0766C94.0646 26.214 94.1126 26.604 94.2206 26.976C94.3286 27.336 94.5026 27.66 94.7426 27.948C94.9826 28.224 95.2886 28.446 95.6606 28.614C96.0326 28.782 96.4706 28.866 96.9746 28.866C97.6226 28.866 98.1506 28.716 98.5586 28.416C98.9786 28.116 99.2546 27.66 99.3866 27.048H100.899ZM107.386 24.276H112.588V25.716H107.386V24.276ZM124.9 30H123.37V20.856H120.058V19.632C120.49 19.632 120.91 19.602 121.318 19.542C121.726 19.47 122.092 19.344 122.416 19.164C122.752 18.984 123.034 18.738 123.262 18.426C123.49 18.114 123.646 17.718 123.73 17.238H124.9V30ZM130.87 23.718C130.87 24.198 130.882 24.738 130.906 25.338C130.942 25.926 131.038 26.484 131.194 27.012C131.362 27.528 131.626 27.966 131.986 28.326C132.346 28.686 132.85 28.866 133.498 28.866C134.146 28.866 134.65 28.686 135.01 28.326C135.37 27.966 135.628 27.528 135.784 27.012C135.952 26.484 136.048 25.926 136.072 25.338C136.108 24.738 136.126 24.198 136.126 23.718C136.126 23.406 136.12 23.064 136.108 22.692C136.108 22.308 136.078 21.93 136.018 21.558C135.97 21.174 135.892 20.802 135.784 20.442C135.688 20.082 135.538 19.77 135.334 19.506C135.142 19.23 134.896 19.008 134.596 18.84C134.296 18.672 133.93 18.588 133.498 18.588C133.066 18.588 132.7 18.672 132.4 18.84C132.1 19.008 131.848 19.23 131.644 19.506C131.452 19.77 131.302 20.082 131.194 20.442C131.098 20.802 131.02 21.174 130.96 21.558C130.912 21.93 130.882 22.308 130.87 22.692C130.87 23.064 130.87 23.406 130.87 23.718ZM129.25 23.736C129.25 23.268 129.262 22.782 129.286 22.278C129.31 21.774 129.37 21.282 129.466 20.802C129.562 20.322 129.7 19.866 129.88 19.434C130.06 19.002 130.306 18.624 130.618 18.3C130.93 17.976 131.32 17.718 131.788 17.526C132.268 17.334 132.838 17.238 133.498 17.238C134.158 17.238 134.722 17.334 135.19 17.526C135.67 17.718 136.066 17.976 136.378 18.3C136.69 18.624 136.936 19.002 137.116 19.434C137.296 19.866 137.434 20.322 137.53 20.802C137.626 21.282 137.686 21.774 137.71 22.278C137.734 22.782 137.746 23.268 137.746 23.736C137.746 24.204 137.734 24.69 137.71 25.194C137.686 25.698 137.626 26.19 137.53 26.67C137.434 27.15 137.296 27.606 137.116 28.038C136.936 28.458 136.69 28.83 136.378 29.154C136.066 29.478 135.676 29.736 135.208 29.928C134.74 30.108 134.17 30.198 133.498 30.198C132.838 30.198 132.268 30.108 131.788 29.928C131.32 29.736 130.93 29.478 130.618 29.154C130.306 28.83 130.06 28.458 129.88 28.038C129.7 27.606 129.562 27.15 129.466 26.67C129.37 26.19 129.31 25.698 129.286 25.194C129.262 24.69 129.25 24.204 129.25 23.736ZM140.872 23.718C140.872 24.198 140.884 24.738 140.908 25.338C140.944 25.926 141.04 26.484 141.196 27.012C141.364 27.528 141.628 27.966 141.988 28.326C142.348 28.686 142.852 28.866 143.5 28.866C144.148 28.866 144.652 28.686 145.012 28.326C145.372 27.966 145.63 27.528 145.786 27.012C145.954 26.484 146.05 25.926 146.074 25.338C146.11 24.738 146.128 24.198 146.128 23.718C146.128 23.406 146.122 23.064 146.11 22.692C146.11 22.308 146.08 21.93 146.02 21.558C145.972 21.174 145.894 20.802 145.786 20.442C145.69 20.082 145.54 19.77 145.336 19.506C145.144 19.23 144.898 19.008 144.598 18.84C144.298 18.672 143.932 18.588 143.5 18.588C143.068 18.588 142.702 18.672 142.402 18.84C142.102 19.008 141.85 19.23 141.646 19.506C141.454 19.77 141.304 20.082 141.196 20.442C141.1 20.802 141.022 21.174 140.962 21.558C140.914 21.93 140.884 22.308 140.872 22.692C140.872 23.064 140.872 23.406 140.872 23.718ZM139.252 23.736C139.252 23.268 139.264 22.782 139.288 22.278C139.312 21.774 139.372 21.282 139.468 20.802C139.564 20.322 139.702 19.866 139.882 19.434C140.062 19.002 140.308 18.624 140.62 18.3C140.932 17.976 141.322 17.718 141.79 17.526C142.27 17.334 142.84 17.238 143.5 17.238C144.16 17.238 144.724 17.334 145.192 17.526C145.672 17.718 146.068 17.976 146.38 18.3C146.692 18.624 146.938 19.002 147.118 19.434C147.298 19.866 147.436 20.322 147.532 20.802C147.628 21.282 147.688 21.774 147.712 22.278C147.736 22.782 147.748 23.268 147.748 23.736C147.748 24.204 147.736 24.69 147.712 25.194C147.688 25.698 147.628 26.19 147.532 26.67C147.436 27.15 147.298 27.606 147.118 28.038C146.938 28.458 146.692 28.83 146.38 29.154C146.068 29.478 145.678 29.736 145.21 29.928C144.742 30.108 144.172 30.198 143.5 30.198C142.84 30.198 142.27 30.108 141.79 29.928C141.322 29.736 140.932 29.478 140.62 29.154C140.308 28.83 140.062 28.458 139.882 28.038C139.702 27.606 139.564 27.15 139.468 26.67C139.372 26.19 139.312 25.698 139.288 25.194C139.264 24.69 139.252 24.204 139.252 23.736ZM149.65 20.694H151.09V22.062H151.126C151.822 21.006 152.824 20.478 154.132 20.478C154.708 20.478 155.23 20.598 155.698 20.838C156.166 21.078 156.496 21.486 156.688 22.062C157 21.558 157.408 21.168 157.912 20.892C158.428 20.616 158.992 20.478 159.604 20.478C160.072 20.478 160.492 20.532 160.864 20.64C161.248 20.736 161.572 20.892 161.836 21.108C162.112 21.324 162.322 21.606 162.466 21.954C162.622 22.29 162.7 22.698 162.7 23.178V30H161.17V23.898C161.17 23.61 161.146 23.34 161.098 23.088C161.05 22.836 160.96 22.62 160.828 22.44C160.696 22.248 160.51 22.098 160.27 21.99C160.042 21.882 159.742 21.828 159.37 21.828C158.614 21.828 158.02 22.044 157.588 22.476C157.156 22.908 156.94 23.484 156.94 24.204V30H155.41V23.898C155.41 23.598 155.38 23.322 155.32 23.07C155.272 22.818 155.182 22.602 155.05 22.422C154.918 22.23 154.738 22.086 154.51 21.99C154.294 21.882 154.012 21.828 153.664 21.828C153.22 21.828 152.836 21.918 152.512 22.098C152.2 22.278 151.942 22.494 151.738 22.746C151.546 22.998 151.402 23.262 151.306 23.538C151.222 23.802 151.18 24.024 151.18 24.204V30H149.65V20.694ZM173.024 29.208C173.024 30.732 172.676 31.872 171.98 32.628C171.284 33.384 170.192 33.762 168.704 33.762C168.272 33.762 167.828 33.714 167.372 33.618C166.928 33.522 166.52 33.366 166.148 33.15C165.788 32.934 165.488 32.652 165.248 32.304C165.008 31.956 164.876 31.53 164.852 31.026H166.382C166.394 31.302 166.478 31.536 166.634 31.728C166.802 31.92 167 32.076 167.228 32.196C167.468 32.316 167.726 32.4 168.002 32.448C168.278 32.508 168.542 32.538 168.794 32.538C169.298 32.538 169.724 32.448 170.072 32.268C170.42 32.1 170.708 31.86 170.936 31.548C171.164 31.248 171.326 30.882 171.422 30.45C171.53 30.018 171.584 29.544 171.584 29.028V28.416H171.548C171.284 28.992 170.882 29.418 170.342 29.694C169.814 29.958 169.25 30.09 168.65 30.09C167.954 30.09 167.348 29.964 166.832 29.712C166.316 29.46 165.884 29.124 165.536 28.704C165.188 28.272 164.924 27.774 164.744 27.21C164.576 26.634 164.492 26.028 164.492 25.392C164.492 24.84 164.564 24.276 164.708 23.7C164.852 23.112 165.092 22.584 165.428 22.116C165.764 21.636 166.208 21.246 166.76 20.946C167.312 20.634 167.99 20.478 168.794 20.478C169.382 20.478 169.922 20.61 170.414 20.874C170.906 21.126 171.29 21.51 171.566 22.026H171.584V20.694H173.024V29.208ZM168.74 28.758C169.244 28.758 169.67 28.656 170.018 28.452C170.378 28.236 170.666 27.96 170.882 27.624C171.098 27.276 171.254 26.886 171.35 26.454C171.458 26.022 171.512 25.59 171.512 25.158C171.512 24.75 171.464 24.348 171.368 23.952C171.272 23.556 171.116 23.202 170.9 22.89C170.696 22.566 170.426 22.308 170.09 22.116C169.754 21.924 169.346 21.828 168.866 21.828C168.374 21.828 167.954 21.924 167.606 22.116C167.258 22.296 166.97 22.542 166.742 22.854C166.526 23.166 166.364 23.526 166.256 23.934C166.16 24.342 166.112 24.768 166.112 25.212C166.112 25.632 166.154 26.052 166.238 26.472C166.322 26.892 166.466 27.276 166.67 27.624C166.874 27.96 167.144 28.236 167.48 28.452C167.816 28.656 168.236 28.758 168.74 28.758ZM179.184 16.842H180.498L175.17 30.288H173.874L179.184 16.842ZM182.442 25.428C182.442 25.86 182.496 26.286 182.604 26.706C182.724 27.114 182.898 27.48 183.126 27.804C183.366 28.128 183.666 28.386 184.026 28.578C184.398 28.77 184.83 28.866 185.322 28.866C185.838 28.866 186.276 28.764 186.636 28.56C186.996 28.356 187.29 28.092 187.518 27.768C187.746 27.432 187.908 27.054 188.004 26.634C188.112 26.214 188.166 25.788 188.166 25.356C188.166 24.9 188.112 24.462 188.004 24.042C187.896 23.61 187.722 23.232 187.482 22.908C187.254 22.584 186.954 22.326 186.582 22.134C186.21 21.93 185.76 21.828 185.232 21.828C184.716 21.828 184.278 21.93 183.918 22.134C183.558 22.338 183.27 22.608 183.054 22.944C182.838 23.28 182.682 23.664 182.586 24.096C182.49 24.528 182.442 24.972 182.442 25.428ZM189.642 30H188.112V28.74H188.076C187.824 29.256 187.428 29.628 186.888 29.856C186.348 30.084 185.754 30.198 185.106 30.198C184.386 30.198 183.756 30.066 183.216 29.802C182.688 29.538 182.244 29.184 181.884 28.74C181.536 28.296 181.272 27.78 181.092 27.192C180.912 26.604 180.822 25.98 180.822 25.32C180.822 24.66 180.906 24.036 181.074 23.448C181.254 22.86 181.518 22.35 181.866 21.918C182.226 21.474 182.67 21.126 183.198 20.874C183.738 20.61 184.362 20.478 185.07 20.478C185.31 20.478 185.568 20.502 185.844 20.55C186.12 20.598 186.396 20.682 186.672 20.802C186.948 20.91 187.206 21.06 187.446 21.252C187.698 21.432 187.908 21.66 188.076 21.936H188.112V17.148H189.642V30ZM192.248 17.148H193.958V28.56H200.762V30H192.248V17.148Z" fill="black"/>
<circle cx="19" cy="24" r="7" fill="#FF6B00"/>
</svg>
