<svg width="206" height="47" viewBox="0 0 206 47" fill="none" xmlns="http://www.w3.org/2000/svg">
<rect x="0.5" y="0.5" width="205" height="46" rx="23" fill="white"/>
<rect x="0.5" y="0.5" width="205" height="46" rx="23" stroke="#B0B0B0"/>
<circle cx="19" cy="23.5" r="7" fill="#48E820"/>
<path d="M36.5388 17.148H38.2488V22.674H45.0168V17.148H46.7268V30H45.0168V24.114H38.2488V30H36.5388V17.148ZM55.739 24.456C55.715 24.096 55.631 23.754 55.487 23.43C55.355 23.106 55.169 22.83 54.929 22.602C54.701 22.362 54.425 22.176 54.101 22.044C53.789 21.9 53.441 21.828 53.057 21.828C52.661 21.828 52.301 21.9 51.977 22.044C51.665 22.176 51.395 22.362 51.167 22.602C50.939 22.842 50.759 23.124 50.627 23.448C50.495 23.76 50.417 24.096 50.393 24.456H55.739ZM57.215 27.048C57.011 28.092 56.561 28.878 55.865 29.406C55.169 29.934 54.293 30.198 53.237 30.198C52.493 30.198 51.845 30.078 51.293 29.838C50.753 29.598 50.297 29.262 49.925 28.83C49.553 28.398 49.271 27.882 49.079 27.282C48.899 26.682 48.797 26.028 48.773 25.32C48.773 24.612 48.881 23.964 49.097 23.376C49.313 22.788 49.613 22.278 49.997 21.846C50.393 21.414 50.855 21.078 51.383 20.838C51.923 20.598 52.511 20.478 53.147 20.478C53.975 20.478 54.659 20.652 55.199 21C55.751 21.336 56.189 21.768 56.513 22.296C56.849 22.824 57.077 23.4 57.197 24.024C57.329 24.648 57.383 25.242 57.359 25.806H50.393C50.381 26.214 50.429 26.604 50.537 26.976C50.645 27.336 50.819 27.66 51.059 27.948C51.299 28.224 51.605 28.446 51.977 28.614C52.349 28.782 52.787 28.866 53.291 28.866C53.939 28.866 54.467 28.716 54.875 28.416C55.295 28.116 55.571 27.66 55.703 27.048H57.215ZM67.189 29.964C66.925 30.12 66.559 30.198 66.091 30.198C65.695 30.198 65.377 30.09 65.137 29.874C64.909 29.646 64.795 29.28 64.795 28.776C64.375 29.28 63.883 29.646 63.319 29.874C62.767 30.09 62.167 30.198 61.519 30.198C61.099 30.198 60.697 30.15 60.313 30.054C59.941 29.958 59.617 29.808 59.341 29.604C59.065 29.4 58.843 29.136 58.675 28.812C58.519 28.476 58.441 28.074 58.441 27.606C58.441 27.078 58.531 26.646 58.711 26.31C58.891 25.974 59.125 25.704 59.413 25.5C59.713 25.284 60.049 25.122 60.421 25.014C60.805 24.906 61.195 24.816 61.591 24.744C62.011 24.66 62.407 24.6 62.779 24.564C63.163 24.516 63.499 24.456 63.787 24.384C64.075 24.3 64.303 24.186 64.471 24.042C64.639 23.886 64.723 23.664 64.723 23.376C64.723 23.04 64.657 22.77 64.525 22.566C64.405 22.362 64.243 22.206 64.039 22.098C63.847 21.99 63.625 21.918 63.373 21.882C63.133 21.846 62.893 21.828 62.653 21.828C62.005 21.828 61.465 21.954 61.033 22.206C60.601 22.446 60.367 22.908 60.331 23.592H58.801C58.825 23.016 58.945 22.53 59.161 22.134C59.377 21.738 59.665 21.42 60.025 21.18C60.385 20.928 60.793 20.748 61.249 20.64C61.717 20.532 62.215 20.478 62.743 20.478C63.163 20.478 63.577 20.508 63.985 20.568C64.405 20.628 64.783 20.754 65.119 20.946C65.455 21.126 65.725 21.384 65.929 21.72C66.133 22.056 66.235 22.494 66.235 23.034V27.822C66.235 28.182 66.253 28.446 66.289 28.614C66.337 28.782 66.481 28.866 66.721 28.866C66.853 28.866 67.009 28.836 67.189 28.776V29.964ZM64.705 25.194C64.513 25.338 64.261 25.446 63.949 25.518C63.637 25.578 63.307 25.632 62.959 25.68C62.623 25.716 62.281 25.764 61.933 25.824C61.585 25.872 61.273 25.956 60.997 26.076C60.721 26.196 60.493 26.37 60.313 26.598C60.145 26.814 60.061 27.114 60.061 27.498C60.061 27.75 60.109 27.966 60.205 28.146C60.313 28.314 60.445 28.452 60.601 28.56C60.769 28.668 60.961 28.746 61.177 28.794C61.393 28.842 61.621 28.866 61.861 28.866C62.365 28.866 62.797 28.8 63.157 28.668C63.517 28.524 63.811 28.35 64.039 28.146C64.267 27.93 64.435 27.702 64.543 27.462C64.651 27.21 64.705 26.976 64.705 26.76V25.194ZM68.5589 20.694H69.9989V22.656H70.0349C70.4069 21.9 70.8629 21.342 71.4029 20.982C71.9429 20.622 72.6269 20.454 73.4549 20.478V22.098C72.8429 22.098 72.3209 22.182 71.8889 22.35C71.4569 22.518 71.1089 22.764 70.8449 23.088C70.5809 23.412 70.3889 23.808 70.2689 24.276C70.1489 24.732 70.0889 25.26 70.0889 25.86V30H68.5589V20.694ZM76.7311 20.694H78.5851V22.044H76.7311V27.822C76.7311 28.002 76.7431 28.146 76.7671 28.254C76.8031 28.362 76.8631 28.446 76.9471 28.506C77.0311 28.566 77.1451 28.608 77.2891 28.632C77.4451 28.644 77.6431 28.65 77.8831 28.65H78.5851V30H77.4151C77.0191 30 76.6771 29.976 76.3891 29.928C76.1131 29.868 75.8851 29.766 75.7051 29.622C75.5371 29.478 75.4111 29.274 75.3271 29.01C75.2431 28.746 75.2011 28.398 75.2011 27.966V22.044H73.6171V20.694H75.2011V17.904H76.7311V20.694ZM85.2406 20.694H86.6806V22.656H86.7166C87.0886 21.9 87.5446 21.342 88.0846 20.982C88.6246 20.622 89.3086 20.454 90.1366 20.478V22.098C89.5246 22.098 89.0026 22.182 88.5706 22.35C88.1386 22.518 87.7906 22.764 87.5266 23.088C87.2626 23.412 87.0706 23.808 86.9506 24.276C86.8306 24.732 86.7706 25.26 86.7706 25.86V30H85.2406V20.694ZM99.5327 29.964C99.2687 30.12 98.9027 30.198 98.4347 30.198C98.0387 30.198 97.7207 30.09 97.4807 29.874C97.2527 29.646 97.1387 29.28 97.1387 28.776C96.7187 29.28 96.2267 29.646 95.6627 29.874C95.1107 30.09 94.5107 30.198 93.8627 30.198C93.4427 30.198 93.0407 30.15 92.6567 30.054C92.2847 29.958 91.9607 29.808 91.6847 29.604C91.4087 29.4 91.1867 29.136 91.0187 28.812C90.8627 28.476 90.7847 28.074 90.7847 27.606C90.7847 27.078 90.8747 26.646 91.0547 26.31C91.2347 25.974 91.4687 25.704 91.7567 25.5C92.0567 25.284 92.3927 25.122 92.7647 25.014C93.1487 24.906 93.5387 24.816 93.9347 24.744C94.3547 24.66 94.7507 24.6 95.1227 24.564C95.5067 24.516 95.8427 24.456 96.1307 24.384C96.4187 24.3 96.6467 24.186 96.8147 24.042C96.9827 23.886 97.0667 23.664 97.0667 23.376C97.0667 23.04 97.0007 22.77 96.8687 22.566C96.7487 22.362 96.5867 22.206 96.3827 22.098C96.1907 21.99 95.9687 21.918 95.7167 21.882C95.4767 21.846 95.2367 21.828 94.9967 21.828C94.3487 21.828 93.8087 21.954 93.3767 22.206C92.9447 22.446 92.7107 22.908 92.6747 23.592H91.1447C91.1687 23.016 91.2887 22.53 91.5047 22.134C91.7207 21.738 92.0087 21.42 92.3687 21.18C92.7287 20.928 93.1367 20.748 93.5927 20.64C94.0607 20.532 94.5587 20.478 95.0867 20.478C95.5067 20.478 95.9207 20.508 96.3287 20.568C96.7487 20.628 97.1267 20.754 97.4627 20.946C97.7987 21.126 98.0687 21.384 98.2727 21.72C98.4767 22.056 98.5787 22.494 98.5787 23.034V27.822C98.5787 28.182 98.5967 28.446 98.6327 28.614C98.6807 28.782 98.8247 28.866 99.0647 28.866C99.1967 28.866 99.3527 28.836 99.5327 28.776V29.964ZM97.0487 25.194C96.8567 25.338 96.6047 25.446 96.2927 25.518C95.9807 25.578 95.6507 25.632 95.3027 25.68C94.9667 25.716 94.6247 25.764 94.2767 25.824C93.9287 25.872 93.6167 25.956 93.3407 26.076C93.0647 26.196 92.8367 26.37 92.6567 26.598C92.4887 26.814 92.4047 27.114 92.4047 27.498C92.4047 27.75 92.4527 27.966 92.5487 28.146C92.6567 28.314 92.7887 28.452 92.9447 28.56C93.1127 28.668 93.3047 28.746 93.5207 28.794C93.7367 28.842 93.9647 28.866 94.2047 28.866C94.7087 28.866 95.1407 28.8 95.5007 28.668C95.8607 28.524 96.1547 28.35 96.3827 28.146C96.6107 27.93 96.7787 27.702 96.8867 27.462C96.9947 27.21 97.0487 26.976 97.0487 26.76V25.194ZM103.081 20.694H104.935V22.044H103.081V27.822C103.081 28.002 103.093 28.146 103.117 28.254C103.153 28.362 103.213 28.446 103.297 28.506C103.381 28.566 103.495 28.608 103.639 28.632C103.795 28.644 103.993 28.65 104.233 28.65H104.935V30H103.765C103.369 30 103.027 29.976 102.739 29.928C102.463 29.868 102.235 29.766 102.055 29.622C101.887 29.478 101.761 29.274 101.677 29.01C101.593 28.746 101.551 28.398 101.551 27.966V22.044H99.9667V20.694H101.551V17.904H103.081V20.694ZM113.096 24.456C113.072 24.096 112.988 23.754 112.844 23.43C112.712 23.106 112.526 22.83 112.286 22.602C112.058 22.362 111.782 22.176 111.458 22.044C111.146 21.9 110.798 21.828 110.414 21.828C110.018 21.828 109.658 21.9 109.334 22.044C109.022 22.176 108.752 22.362 108.524 22.602C108.296 22.842 108.116 23.124 107.984 23.448C107.852 23.76 107.774 24.096 107.75 24.456H113.096ZM114.572 27.048C114.368 28.092 113.918 28.878 113.222 29.406C112.526 29.934 111.65 30.198 110.594 30.198C109.85 30.198 109.202 30.078 108.65 29.838C108.11 29.598 107.654 29.262 107.282 28.83C106.91 28.398 106.628 27.882 106.436 27.282C106.256 26.682 106.154 26.028 106.13 25.32C106.13 24.612 106.238 23.964 106.454 23.376C106.67 22.788 106.97 22.278 107.354 21.846C107.75 21.414 108.212 21.078 108.74 20.838C109.28 20.598 109.868 20.478 110.504 20.478C111.332 20.478 112.016 20.652 112.556 21C113.108 21.336 113.546 21.768 113.87 22.296C114.206 22.824 114.434 23.4 114.554 24.024C114.686 24.648 114.74 25.242 114.716 25.806H107.75C107.738 26.214 107.786 26.604 107.894 26.976C108.002 27.336 108.176 27.66 108.416 27.948C108.656 28.224 108.962 28.446 109.334 28.614C109.706 28.782 110.144 28.866 110.648 28.866C111.296 28.866 111.824 28.716 112.232 28.416C112.652 28.116 112.928 27.66 113.06 27.048H114.572ZM121.06 24.276H126.262V25.716H121.06V24.276ZM141.328 18.768C140.68 19.404 140.074 20.16 139.51 21.036C138.946 21.912 138.442 22.848 137.998 23.844C137.566 24.84 137.212 25.866 136.936 26.922C136.66 27.978 136.492 29.004 136.432 30H134.722C134.794 28.92 134.968 27.87 135.244 26.85C135.532 25.818 135.898 24.834 136.342 23.898C136.786 22.95 137.296 22.056 137.872 21.216C138.46 20.376 139.09 19.602 139.762 18.894H133.066V17.454H141.328V18.768ZM149.62 20.496C149.548 19.92 149.326 19.458 148.954 19.11C148.582 18.762 148.09 18.588 147.478 18.588C146.83 18.588 146.308 18.75 145.912 19.074C145.516 19.386 145.204 19.788 144.976 20.28C144.76 20.76 144.61 21.282 144.526 21.846C144.442 22.41 144.394 22.938 144.382 23.43L144.418 23.466C144.778 22.878 145.222 22.452 145.75 22.188C146.29 21.924 146.908 21.792 147.604 21.792C148.216 21.792 148.762 21.9 149.242 22.116C149.734 22.32 150.142 22.608 150.466 22.98C150.802 23.352 151.06 23.79 151.24 24.294C151.42 24.798 151.51 25.344 151.51 25.932C151.51 26.4 151.438 26.886 151.294 27.39C151.15 27.894 150.91 28.356 150.574 28.776C150.25 29.184 149.812 29.526 149.26 29.802C148.72 30.066 148.048 30.198 147.244 30.198C146.296 30.198 145.534 30.006 144.958 29.622C144.382 29.238 143.938 28.746 143.626 28.146C143.314 27.546 143.104 26.886 142.996 26.166C142.9 25.446 142.852 24.75 142.852 24.078C142.852 23.202 142.924 22.356 143.068 21.54C143.224 20.712 143.482 19.98 143.842 19.344C144.202 18.708 144.682 18.198 145.282 17.814C145.882 17.43 146.638 17.238 147.55 17.238C148.606 17.238 149.446 17.52 150.07 18.084C150.694 18.636 151.054 19.44 151.15 20.496H149.62ZM147.316 23.142C146.884 23.142 146.506 23.22 146.182 23.376C145.858 23.52 145.582 23.724 145.354 23.988C145.126 24.24 144.952 24.546 144.832 24.906C144.724 25.254 144.67 25.626 144.67 26.022C144.67 26.418 144.73 26.79 144.85 27.138C144.97 27.486 145.138 27.786 145.354 28.038C145.582 28.29 145.858 28.494 146.182 28.65C146.518 28.794 146.896 28.866 147.316 28.866C147.736 28.866 148.102 28.794 148.414 28.65C148.738 28.494 149.008 28.284 149.224 28.02C149.44 27.756 149.602 27.456 149.71 27.12C149.83 26.772 149.89 26.412 149.89 26.04C149.89 25.644 149.836 25.272 149.728 24.924C149.632 24.564 149.476 24.258 149.26 24.006C149.044 23.742 148.774 23.532 148.45 23.376C148.126 23.22 147.748 23.142 147.316 23.142ZM158.386 17.148H159.916V21.954H159.952C160.204 21.438 160.6 21.066 161.14 20.838C161.68 20.598 162.274 20.478 162.922 20.478C163.642 20.478 164.266 20.61 164.794 20.874C165.334 21.138 165.778 21.498 166.126 21.954C166.486 22.398 166.756 22.914 166.936 23.502C167.116 24.09 167.206 24.714 167.206 25.374C167.206 26.034 167.116 26.658 166.936 27.246C166.768 27.834 166.504 28.35 166.144 28.794C165.796 29.226 165.352 29.568 164.812 29.82C164.284 30.072 163.666 30.198 162.958 30.198C162.73 30.198 162.472 30.174 162.184 30.126C161.908 30.078 161.632 30 161.356 29.892C161.08 29.784 160.816 29.64 160.564 29.46C160.324 29.268 160.12 29.034 159.952 28.758H159.916V30H158.386V17.148ZM165.586 25.266C165.586 24.834 165.526 24.414 165.406 24.006C165.298 23.586 165.124 23.214 164.884 22.89C164.656 22.566 164.356 22.308 163.984 22.116C163.624 21.924 163.198 21.828 162.706 21.828C162.19 21.828 161.752 21.93 161.392 22.134C161.032 22.338 160.738 22.608 160.51 22.944C160.282 23.268 160.114 23.64 160.006 24.06C159.91 24.48 159.862 24.906 159.862 25.338C159.862 25.794 159.916 26.238 160.024 26.67C160.132 27.09 160.3 27.462 160.528 27.786C160.768 28.11 161.074 28.374 161.446 28.578C161.818 28.77 162.268 28.866 162.796 28.866C163.324 28.866 163.762 28.764 164.11 28.56C164.47 28.356 164.758 28.086 164.974 27.75C165.19 27.414 165.346 27.03 165.442 26.598C165.538 26.166 165.586 25.722 165.586 25.266ZM169.056 20.694H170.586V21.954H170.622C170.874 21.438 171.27 21.066 171.81 20.838C172.35 20.598 172.944 20.478 173.592 20.478C174.312 20.478 174.936 20.61 175.464 20.874C176.004 21.138 176.448 21.498 176.796 21.954C177.156 22.398 177.426 22.914 177.606 23.502C177.786 24.09 177.876 24.714 177.876 25.374C177.876 26.034 177.786 26.658 177.606 27.246C177.438 27.834 177.174 28.35 176.814 28.794C176.466 29.226 176.022 29.568 175.482 29.82C174.954 30.072 174.336 30.198 173.628 30.198C173.4 30.198 173.142 30.174 172.854 30.126C172.578 30.078 172.302 30 172.026 29.892C171.75 29.784 171.486 29.64 171.234 29.46C170.994 29.268 170.79 29.034 170.622 28.758H170.586V33.546H169.056V20.694ZM176.256 25.266C176.256 24.834 176.196 24.414 176.076 24.006C175.968 23.586 175.794 23.214 175.554 22.89C175.326 22.566 175.026 22.308 174.654 22.116C174.294 21.924 173.868 21.828 173.376 21.828C172.86 21.828 172.422 21.93 172.062 22.134C171.702 22.338 171.408 22.608 171.18 22.944C170.952 23.268 170.784 23.64 170.676 24.06C170.58 24.48 170.532 24.906 170.532 25.338C170.532 25.794 170.586 26.238 170.694 26.67C170.802 27.09 170.97 27.462 171.198 27.786C171.438 28.11 171.744 28.374 172.116 28.578C172.488 28.77 172.938 28.866 173.466 28.866C173.994 28.866 174.432 28.764 174.78 28.56C175.14 28.356 175.428 28.086 175.644 27.75C175.86 27.414 176.016 27.03 176.112 26.598C176.208 26.166 176.256 25.722 176.256 25.266ZM179.672 20.694H181.112V22.062H181.148C181.844 21.006 182.846 20.478 184.154 20.478C184.73 20.478 185.252 20.598 185.72 20.838C186.188 21.078 186.518 21.486 186.71 22.062C187.022 21.558 187.43 21.168 187.934 20.892C188.45 20.616 189.014 20.478 189.626 20.478C190.094 20.478 190.514 20.532 190.886 20.64C191.27 20.736 191.594 20.892 191.858 21.108C192.134 21.324 192.344 21.606 192.488 21.954C192.644 22.29 192.722 22.698 192.722 23.178V30H191.192V23.898C191.192 23.61 191.168 23.34 191.12 23.088C191.072 22.836 190.982 22.62 190.85 22.44C190.718 22.248 190.532 22.098 190.292 21.99C190.064 21.882 189.764 21.828 189.392 21.828C188.636 21.828 188.042 22.044 187.61 22.476C187.178 22.908 186.962 23.484 186.962 24.204V30H185.432V23.898C185.432 23.598 185.402 23.322 185.342 23.07C185.294 22.818 185.204 22.602 185.072 22.422C184.94 22.23 184.76 22.086 184.532 21.99C184.316 21.882 184.034 21.828 183.686 21.828C183.242 21.828 182.858 21.918 182.534 22.098C182.222 22.278 181.964 22.494 181.76 22.746C181.568 22.998 181.424 23.262 181.328 23.538C181.244 23.802 181.202 24.024 181.202 24.204V30H179.672V20.694Z" fill="black"/>
</svg>
