<svg width="148" height="47" viewBox="0 0 148 47" fill="none" xmlns="http://www.w3.org/2000/svg">
<rect x="0.5" y="0.5" width="147" height="46" rx="23" fill="white"/>
<rect x="0.5" y="0.5" width="147" height="46" rx="23" stroke="#B0B0B0"/>
<circle cx="19" cy="23.5" r="7" fill="#FF0000"/>
<path d="M36.8942 17.148H38.6042V22.674H45.3722V17.148H47.0822V30H45.3722V24.114H38.6042V30H36.8942V17.148ZM49.6865 17.148H51.2165V21.954H51.2525C51.5045 21.438 51.9005 21.066 52.4405 20.838C52.9805 20.598 53.5745 20.478 54.2225 20.478C54.9425 20.478 55.5665 20.61 56.0945 20.874C56.6345 21.138 57.0785 21.498 57.4265 21.954C57.7865 22.398 58.0565 22.914 58.2365 23.502C58.4165 24.09 58.5065 24.714 58.5065 25.374C58.5065 26.034 58.4165 26.658 58.2365 27.246C58.0685 27.834 57.8045 28.35 57.4445 28.794C57.0965 29.226 56.6525 29.568 56.1125 29.82C55.5845 30.072 54.9665 30.198 54.2585 30.198C54.0305 30.198 53.7725 30.174 53.4845 30.126C53.2085 30.078 52.9325 30 52.6565 29.892C52.3805 29.784 52.1165 29.64 51.8645 29.46C51.6245 29.268 51.4205 29.034 51.2525 28.758H51.2165V30H49.6865V17.148ZM56.8865 25.266C56.8865 24.834 56.8265 24.414 56.7065 24.006C56.5985 23.586 56.4245 23.214 56.1845 22.89C55.9565 22.566 55.6565 22.308 55.2845 22.116C54.9245 21.924 54.4985 21.828 54.0065 21.828C53.4905 21.828 53.0525 21.93 52.6925 22.134C52.3325 22.338 52.0385 22.608 51.8105 22.944C51.5825 23.268 51.4145 23.64 51.3065 24.06C51.2105 24.48 51.1625 24.906 51.1625 25.338C51.1625 25.794 51.2165 26.238 51.3245 26.67C51.4325 27.09 51.6005 27.462 51.8285 27.786C52.0685 28.11 52.3745 28.374 52.7465 28.578C53.1185 28.77 53.5685 28.866 54.0965 28.866C54.6245 28.866 55.0625 28.764 55.4105 28.56C55.7705 28.356 56.0585 28.086 56.2745 27.75C56.4905 27.414 56.6465 27.03 56.7425 26.598C56.8385 26.166 56.8865 25.722 56.8865 25.266ZM62.7684 24.69H67.1244L64.9824 18.696H64.9464L62.7684 24.69ZM64.0464 17.148H65.9364L70.9584 30H69.0684L67.6644 26.13H62.2284L60.7884 30H59.0424L64.0464 17.148ZM77.2303 30H75.7003V20.856H72.3883V19.632C72.8203 19.632 73.2403 19.602 73.6483 19.542C74.0563 19.47 74.4223 19.344 74.7463 19.164C75.0823 18.984 75.3643 18.738 75.5923 18.426C75.8203 18.114 75.9763 17.718 76.0603 17.238H77.2303V30ZM88.2942 23.682C88.1742 23.094 87.9222 22.638 87.5382 22.314C87.1542 21.99 86.6382 21.828 85.9902 21.828C85.4382 21.828 84.9762 21.93 84.6042 22.134C84.2322 22.338 83.9322 22.608 83.7042 22.944C83.4882 23.28 83.3322 23.67 83.2362 24.114C83.1402 24.546 83.0922 24.996 83.0922 25.464C83.0922 25.896 83.1402 26.316 83.2362 26.724C83.3442 27.132 83.5062 27.498 83.7222 27.822C83.9382 28.134 84.2202 28.386 84.5682 28.578C84.9162 28.77 85.3302 28.866 85.8102 28.866C86.5662 28.866 87.1542 28.668 87.5742 28.272C88.0062 27.876 88.2702 27.318 88.3662 26.598H89.9322C89.7642 27.75 89.3322 28.638 88.6362 29.262C87.9522 29.886 87.0162 30.198 85.8282 30.198C85.1202 30.198 84.4902 30.084 83.9382 29.856C83.3982 29.628 82.9422 29.304 82.5702 28.884C82.2102 28.464 81.9342 27.966 81.7422 27.39C81.5622 26.802 81.4722 26.16 81.4722 25.464C81.4722 24.768 81.5622 24.12 81.7422 23.52C81.9222 22.908 82.1922 22.38 82.5522 21.936C82.9242 21.48 83.3862 21.126 83.9382 20.874C84.4902 20.61 85.1322 20.478 85.8642 20.478C86.3922 20.478 86.8842 20.544 87.3402 20.676C87.8082 20.796 88.2162 20.988 88.5642 21.252C88.9242 21.516 89.2182 21.852 89.4462 22.26C89.6742 22.656 89.8182 23.13 89.8782 23.682H88.2942ZM96.402 24.276H101.604V25.716H96.402V24.276ZM116.67 18.768C116.022 19.404 115.416 20.16 114.852 21.036C114.288 21.912 113.784 22.848 113.34 23.844C112.908 24.84 112.554 25.866 112.278 26.922C112.002 27.978 111.834 29.004 111.774 30H110.064C110.136 28.92 110.31 27.87 110.586 26.85C110.874 25.818 111.24 24.834 111.684 23.898C112.128 22.95 112.638 22.056 113.214 21.216C113.802 20.376 114.432 19.602 115.104 18.894H108.408V17.454H116.67V18.768ZM120.516 20.856C120.516 21.12 120.528 21.408 120.552 21.72C120.588 22.02 120.66 22.302 120.768 22.566C120.876 22.818 121.026 23.034 121.218 23.214C121.422 23.382 121.692 23.466 122.028 23.466C122.376 23.466 122.652 23.382 122.856 23.214C123.06 23.046 123.216 22.836 123.324 22.584C123.444 22.32 123.522 22.032 123.558 21.72C123.594 21.408 123.612 21.114 123.612 20.838C123.612 20.574 123.594 20.292 123.558 19.992C123.534 19.68 123.468 19.398 123.36 19.146C123.252 18.882 123.096 18.666 122.892 18.498C122.7 18.318 122.43 18.228 122.082 18.228C121.746 18.228 121.476 18.318 121.272 18.498C121.068 18.666 120.906 18.882 120.786 19.146C120.678 19.398 120.606 19.68 120.57 19.992C120.534 20.292 120.516 20.58 120.516 20.856ZM119.166 20.892C119.166 20.4 119.214 19.938 119.31 19.506C119.406 19.062 119.568 18.672 119.796 18.336C120.024 18 120.324 17.736 120.696 17.544C121.068 17.34 121.53 17.238 122.082 17.238C122.646 17.238 123.108 17.334 123.468 17.526C123.84 17.718 124.134 17.976 124.35 18.3C124.578 18.624 124.734 19.008 124.818 19.452C124.914 19.884 124.962 20.346 124.962 20.838C124.962 21.306 124.908 21.762 124.8 22.206C124.704 22.638 124.536 23.022 124.296 23.358C124.068 23.682 123.774 23.946 123.414 24.15C123.054 24.354 122.61 24.456 122.082 24.456C121.542 24.456 121.086 24.366 120.714 24.186C120.342 23.994 120.042 23.736 119.814 23.412C119.586 23.088 119.418 22.71 119.31 22.278C119.214 21.846 119.166 21.384 119.166 20.892ZM129.408 26.616C129.408 26.88 129.42 27.168 129.444 27.48C129.48 27.78 129.552 28.062 129.66 28.326C129.768 28.578 129.918 28.794 130.11 28.974C130.314 29.142 130.584 29.226 130.92 29.226C131.268 29.226 131.544 29.142 131.748 28.974C131.952 28.806 132.108 28.596 132.216 28.344C132.336 28.08 132.414 27.792 132.45 27.48C132.486 27.168 132.504 26.874 132.504 26.598C132.504 26.334 132.486 26.052 132.45 25.752C132.426 25.44 132.36 25.158 132.252 24.906C132.144 24.642 131.988 24.426 131.784 24.258C131.592 24.078 131.322 23.988 130.974 23.988C130.638 23.988 130.368 24.078 130.164 24.258C129.96 24.426 129.798 24.642 129.678 24.906C129.57 25.158 129.498 25.44 129.462 25.752C129.426 26.052 129.408 26.34 129.408 26.616ZM128.058 26.652C128.058 26.16 128.106 25.698 128.202 25.266C128.298 24.822 128.46 24.432 128.688 24.096C128.916 23.76 129.216 23.496 129.588 23.304C129.96 23.1 130.422 22.998 130.974 22.998C131.538 22.998 132 23.094 132.36 23.286C132.732 23.478 133.026 23.736 133.242 24.06C133.47 24.384 133.626 24.768 133.71 25.212C133.806 25.644 133.854 26.106 133.854 26.598C133.854 27.066 133.8 27.522 133.692 27.966C133.596 28.398 133.428 28.782 133.188 29.118C132.96 29.442 132.666 29.706 132.306 29.91C131.946 30.102 131.502 30.198 130.974 30.198C130.434 30.198 129.978 30.108 129.606 29.928C129.234 29.736 128.934 29.484 128.706 29.172C128.478 28.848 128.31 28.47 128.202 28.038C128.106 27.606 128.058 27.144 128.058 26.652ZM130.578 17.004H132.108L122.442 30.378H120.894L130.578 17.004Z" fill="black"/>
</svg>
