<svg width="204" height="47" viewBox="0 0 204 47" fill="none" xmlns="http://www.w3.org/2000/svg">
<rect x="0.5" y="0.5" width="203" height="46" rx="23" fill="white"/>
<rect x="0.5" y="0.5" width="203" height="46" rx="23" stroke="#B0B0B0"/>
<circle cx="19" cy="23.5" r="7" fill="#2AE2D3"/>
<path d="M38.5935 22.674H42.0135C42.9855 22.674 43.6815 22.506 44.1015 22.17C44.5335 21.822 44.7495 21.306 44.7495 20.622C44.7495 20.166 44.6775 19.806 44.5335 19.542C44.3895 19.278 44.1915 19.074 43.9395 18.93C43.6875 18.786 43.3935 18.696 43.0575 18.66C42.7335 18.612 42.3855 18.588 42.0135 18.588H38.5935V22.674ZM36.8835 17.148H41.5455C41.8215 17.148 42.1155 17.154 42.4275 17.166C42.7515 17.166 43.0695 17.184 43.3815 17.22C43.6935 17.244 43.9815 17.286 44.2455 17.346C44.5215 17.406 44.7555 17.496 44.9475 17.616C45.3675 17.868 45.7215 18.216 46.0095 18.66C46.3095 19.104 46.4595 19.65 46.4595 20.298C46.4595 20.982 46.2915 21.576 45.9555 22.08C45.6315 22.572 45.1635 22.938 44.5515 23.178V23.214C45.3435 23.382 45.9495 23.742 46.3695 24.294C46.7895 24.846 46.9995 25.518 46.9995 26.31C46.9995 26.778 46.9155 27.234 46.7475 27.678C46.5795 28.122 46.3275 28.518 45.9915 28.866C45.6675 29.202 45.2595 29.478 44.7675 29.694C44.2875 29.898 43.7295 30 43.0935 30H36.8835V17.148ZM38.5935 28.56H42.8775C43.6335 28.56 44.2215 28.356 44.6415 27.948C45.0735 27.54 45.2895 26.976 45.2895 26.256C45.2895 25.836 45.2115 25.488 45.0555 25.212C44.8995 24.936 44.6895 24.72 44.4255 24.564C44.1735 24.396 43.8795 24.282 43.5435 24.222C43.2075 24.15 42.8595 24.114 42.4995 24.114H38.5935V28.56ZM50.9158 23.304H54.2638C55.2358 23.316 55.9438 23.118 56.3878 22.71C56.8438 22.302 57.0718 21.714 57.0718 20.946C57.0718 20.178 56.8438 19.596 56.3878 19.2C55.9438 18.792 55.2358 18.588 54.2638 18.588H50.9158V23.304ZM49.2058 17.148H54.8398C56.1358 17.148 57.1138 17.484 57.7738 18.156C58.4458 18.816 58.7818 19.746 58.7818 20.946C58.7818 22.146 58.4458 23.082 57.7738 23.754C57.1138 24.426 56.1358 24.756 54.8398 24.744H50.9158V30H49.2058V17.148ZM65.3834 24.276H70.5854V25.716H65.3834V24.276ZM82.8973 30H81.3673V20.856H78.0553V19.632C78.4873 19.632 78.9073 19.602 79.3153 19.542C79.7233 19.47 80.0893 19.344 80.4133 19.164C80.7493 18.984 81.0313 18.738 81.2593 18.426C81.4873 18.114 81.6433 17.718 81.7273 17.238H82.8973V30ZM87.2832 21.756C87.2472 21.108 87.3132 20.508 87.4812 19.956C87.6492 19.404 87.9072 18.93 88.2552 18.534C88.6152 18.126 89.0592 17.808 89.5872 17.58C90.1152 17.352 90.7152 17.238 91.3872 17.238C91.9392 17.238 92.4552 17.322 92.9352 17.49C93.4272 17.646 93.8532 17.88 94.2132 18.192C94.5732 18.492 94.8552 18.87 95.0592 19.326C95.2752 19.782 95.3832 20.31 95.3832 20.91C95.3832 21.474 95.2932 21.972 95.1132 22.404C94.9452 22.836 94.7172 23.226 94.4292 23.574C94.1412 23.91 93.8112 24.216 93.4392 24.492C93.0672 24.768 92.6832 25.032 92.2872 25.284C91.8912 25.524 91.4952 25.764 91.0992 26.004C90.7032 26.232 90.3372 26.478 90.0012 26.742C89.6772 27.006 89.3952 27.294 89.1552 27.606C88.9272 27.906 88.7772 28.254 88.7052 28.65H95.2572V30H86.9232C86.9832 29.244 87.1152 28.602 87.3192 28.074C87.5352 27.534 87.8052 27.066 88.1292 26.67C88.4532 26.274 88.8192 25.926 89.2272 25.626C89.6352 25.326 90.0612 25.044 90.5052 24.78C91.0452 24.444 91.5192 24.138 91.9272 23.862C92.3352 23.574 92.6712 23.286 92.9352 22.998C93.2112 22.71 93.4152 22.398 93.5472 22.062C93.6912 21.726 93.7632 21.336 93.7632 20.892C93.7632 20.544 93.6972 20.232 93.5652 19.956C93.4332 19.668 93.2532 19.422 93.0252 19.218C92.8092 19.014 92.5512 18.858 92.2512 18.75C91.9512 18.642 91.6332 18.588 91.2972 18.588C90.8532 18.588 90.4692 18.684 90.1452 18.876C89.8332 19.056 89.5752 19.296 89.3712 19.596C89.1672 19.896 89.0172 20.238 88.9212 20.622C88.8372 20.994 88.8012 21.372 88.8132 21.756H87.2832ZM98.8692 23.718C98.8692 24.198 98.8812 24.738 98.9052 25.338C98.9412 25.926 99.0372 26.484 99.1932 27.012C99.3612 27.528 99.6252 27.966 99.9852 28.326C100.345 28.686 100.849 28.866 101.497 28.866C102.145 28.866 102.649 28.686 103.009 28.326C103.369 27.966 103.627 27.528 103.783 27.012C103.951 26.484 104.047 25.926 104.071 25.338C104.107 24.738 104.125 24.198 104.125 23.718C104.125 23.406 104.119 23.064 104.107 22.692C104.107 22.308 104.077 21.93 104.017 21.558C103.969 21.174 103.891 20.802 103.783 20.442C103.687 20.082 103.537 19.77 103.333 19.506C103.141 19.23 102.895 19.008 102.595 18.84C102.295 18.672 101.929 18.588 101.497 18.588C101.065 18.588 100.699 18.672 100.399 18.84C100.099 19.008 99.8472 19.23 99.6432 19.506C99.4512 19.77 99.3012 20.082 99.1932 20.442C99.0972 20.802 99.0192 21.174 98.9592 21.558C98.9112 21.93 98.8812 22.308 98.8692 22.692C98.8692 23.064 98.8692 23.406 98.8692 23.718ZM97.2492 23.736C97.2492 23.268 97.2612 22.782 97.2852 22.278C97.3092 21.774 97.3692 21.282 97.4652 20.802C97.5612 20.322 97.6992 19.866 97.8792 19.434C98.0592 19.002 98.3052 18.624 98.6172 18.3C98.9292 17.976 99.3192 17.718 99.7872 17.526C100.267 17.334 100.837 17.238 101.497 17.238C102.157 17.238 102.721 17.334 103.189 17.526C103.669 17.718 104.065 17.976 104.377 18.3C104.689 18.624 104.935 19.002 105.115 19.434C105.295 19.866 105.433 20.322 105.529 20.802C105.625 21.282 105.685 21.774 105.709 22.278C105.733 22.782 105.745 23.268 105.745 23.736C105.745 24.204 105.733 24.69 105.709 25.194C105.685 25.698 105.625 26.19 105.529 26.67C105.433 27.15 105.295 27.606 105.115 28.038C104.935 28.458 104.689 28.83 104.377 29.154C104.065 29.478 103.675 29.736 103.207 29.928C102.739 30.108 102.169 30.198 101.497 30.198C100.837 30.198 100.267 30.108 99.7872 29.928C99.3192 29.736 98.9292 29.478 98.6172 29.154C98.3052 28.83 98.0592 28.458 97.8792 28.038C97.6992 27.606 97.5612 27.15 97.4652 26.67C97.3692 26.19 97.3092 25.698 97.2852 25.194C97.2612 24.69 97.2492 24.204 97.2492 23.736ZM111.499 16.842H112.813L107.485 30.288H106.189L111.499 16.842ZM115.279 20.55C115.279 20.898 115.339 21.204 115.459 21.468C115.579 21.72 115.741 21.93 115.945 22.098C116.149 22.266 116.389 22.392 116.665 22.476C116.941 22.56 117.235 22.602 117.547 22.602C118.159 22.602 118.663 22.422 119.059 22.062C119.455 21.702 119.653 21.198 119.653 20.55C119.653 19.902 119.449 19.416 119.041 19.092C118.645 18.756 118.135 18.588 117.511 18.588C117.211 18.588 116.923 18.63 116.647 18.714C116.371 18.798 116.131 18.924 115.927 19.092C115.735 19.26 115.579 19.464 115.459 19.704C115.339 19.944 115.279 20.226 115.279 20.55ZM113.659 20.496C113.659 19.968 113.761 19.506 113.965 19.11C114.169 18.702 114.445 18.36 114.793 18.084C115.141 17.808 115.537 17.598 115.981 17.454C116.437 17.31 116.911 17.238 117.403 17.238C118.099 17.238 118.693 17.334 119.185 17.526C119.677 17.706 120.073 17.952 120.373 18.264C120.685 18.564 120.913 18.912 121.057 19.308C121.201 19.692 121.273 20.088 121.273 20.496C121.273 21.072 121.111 21.6 120.787 22.08C120.475 22.548 120.049 22.902 119.509 23.142C120.277 23.382 120.847 23.778 121.219 24.33C121.591 24.87 121.777 25.536 121.777 26.328C121.777 26.952 121.663 27.504 121.435 27.984C121.219 28.464 120.919 28.872 120.535 29.208C120.163 29.532 119.719 29.778 119.203 29.946C118.687 30.114 118.135 30.198 117.547 30.198C116.935 30.198 116.365 30.12 115.837 29.964C115.309 29.808 114.847 29.568 114.451 29.244C114.067 28.92 113.761 28.518 113.533 28.038C113.317 27.546 113.209 26.976 113.209 26.328C113.209 25.572 113.401 24.918 113.785 24.366C114.169 23.802 114.721 23.394 115.441 23.142C114.901 22.926 114.469 22.578 114.145 22.098C113.821 21.606 113.659 21.072 113.659 20.496ZM114.829 26.4C114.829 27.168 115.081 27.774 115.585 28.218C116.101 28.65 116.755 28.866 117.547 28.866C117.931 28.866 118.279 28.806 118.591 28.686C118.915 28.554 119.191 28.38 119.419 28.164C119.659 27.936 119.839 27.672 119.959 27.372C120.091 27.072 120.157 26.742 120.157 26.382C120.157 26.034 120.085 25.716 119.941 25.428C119.809 25.128 119.623 24.87 119.383 24.654C119.143 24.438 118.861 24.27 118.537 24.15C118.225 24.018 117.889 23.952 117.529 23.952C117.157 23.952 116.803 24.012 116.467 24.132C116.143 24.24 115.855 24.402 115.603 24.618C115.363 24.834 115.171 25.092 115.027 25.392C114.895 25.692 114.829 26.028 114.829 26.4ZM124.867 23.718C124.867 24.198 124.879 24.738 124.903 25.338C124.939 25.926 125.035 26.484 125.191 27.012C125.359 27.528 125.623 27.966 125.983 28.326C126.343 28.686 126.847 28.866 127.495 28.866C128.143 28.866 128.647 28.686 129.007 28.326C129.367 27.966 129.625 27.528 129.781 27.012C129.949 26.484 130.045 25.926 130.069 25.338C130.105 24.738 130.123 24.198 130.123 23.718C130.123 23.406 130.117 23.064 130.105 22.692C130.105 22.308 130.075 21.93 130.015 21.558C129.967 21.174 129.889 20.802 129.781 20.442C129.685 20.082 129.535 19.77 129.331 19.506C129.139 19.23 128.893 19.008 128.593 18.84C128.293 18.672 127.927 18.588 127.495 18.588C127.063 18.588 126.697 18.672 126.397 18.84C126.097 19.008 125.845 19.23 125.641 19.506C125.449 19.77 125.299 20.082 125.191 20.442C125.095 20.802 125.017 21.174 124.957 21.558C124.909 21.93 124.879 22.308 124.867 22.692C124.867 23.064 124.867 23.406 124.867 23.718ZM123.247 23.736C123.247 23.268 123.259 22.782 123.283 22.278C123.307 21.774 123.367 21.282 123.463 20.802C123.559 20.322 123.697 19.866 123.877 19.434C124.057 19.002 124.303 18.624 124.615 18.3C124.927 17.976 125.317 17.718 125.785 17.526C126.265 17.334 126.835 17.238 127.495 17.238C128.155 17.238 128.719 17.334 129.187 17.526C129.667 17.718 130.063 17.976 130.375 18.3C130.687 18.624 130.933 19.002 131.113 19.434C131.293 19.866 131.431 20.322 131.527 20.802C131.623 21.282 131.683 21.774 131.707 22.278C131.731 22.782 131.743 23.268 131.743 23.736C131.743 24.204 131.731 24.69 131.707 25.194C131.683 25.698 131.623 26.19 131.527 26.67C131.431 27.15 131.293 27.606 131.113 28.038C130.933 28.458 130.687 28.83 130.375 29.154C130.063 29.478 129.673 29.736 129.205 29.928C128.737 30.108 128.167 30.198 127.495 30.198C126.835 30.198 126.265 30.108 125.785 29.928C125.317 29.736 124.927 29.478 124.615 29.154C124.303 28.83 124.057 28.458 123.877 28.038C123.697 27.606 123.559 27.15 123.463 26.67C123.367 26.19 123.307 25.698 123.283 25.194C123.259 24.69 123.247 24.204 123.247 23.736ZM138.655 20.694H140.095V22.062H140.131C140.827 21.006 141.829 20.478 143.137 20.478C143.713 20.478 144.235 20.598 144.703 20.838C145.171 21.078 145.501 21.486 145.693 22.062C146.005 21.558 146.413 21.168 146.917 20.892C147.433 20.616 147.997 20.478 148.609 20.478C149.077 20.478 149.497 20.532 149.869 20.64C150.253 20.736 150.577 20.892 150.841 21.108C151.117 21.324 151.327 21.606 151.471 21.954C151.627 22.29 151.705 22.698 151.705 23.178V30H150.175V23.898C150.175 23.61 150.151 23.34 150.103 23.088C150.055 22.836 149.965 22.62 149.833 22.44C149.701 22.248 149.515 22.098 149.275 21.99C149.047 21.882 148.747 21.828 148.375 21.828C147.619 21.828 147.025 22.044 146.593 22.476C146.161 22.908 145.945 23.484 145.945 24.204V30H144.415V23.898C144.415 23.598 144.385 23.322 144.325 23.07C144.277 22.818 144.187 22.602 144.055 22.422C143.923 22.23 143.743 22.086 143.515 21.99C143.299 21.882 143.017 21.828 142.669 21.828C142.225 21.828 141.841 21.918 141.517 22.098C141.205 22.278 140.947 22.494 140.743 22.746C140.551 22.998 140.407 23.262 140.311 23.538C140.227 23.802 140.185 24.024 140.185 24.204V30H138.655V20.694ZM154.001 20.694H155.441V22.062H155.477C156.173 21.006 157.175 20.478 158.483 20.478C159.059 20.478 159.581 20.598 160.049 20.838C160.517 21.078 160.847 21.486 161.039 22.062C161.351 21.558 161.759 21.168 162.263 20.892C162.779 20.616 163.343 20.478 163.955 20.478C164.423 20.478 164.843 20.532 165.215 20.64C165.599 20.736 165.923 20.892 166.187 21.108C166.463 21.324 166.673 21.606 166.817 21.954C166.973 22.29 167.051 22.698 167.051 23.178V30H165.521V23.898C165.521 23.61 165.497 23.34 165.449 23.088C165.401 22.836 165.311 22.62 165.179 22.44C165.047 22.248 164.861 22.098 164.621 21.99C164.393 21.882 164.093 21.828 163.721 21.828C162.965 21.828 162.371 22.044 161.939 22.476C161.507 22.908 161.291 23.484 161.291 24.204V30H159.761V23.898C159.761 23.598 159.731 23.322 159.671 23.07C159.623 22.818 159.533 22.602 159.401 22.422C159.269 22.23 159.089 22.086 158.861 21.99C158.645 21.882 158.363 21.828 158.015 21.828C157.571 21.828 157.187 21.918 156.863 22.098C156.551 22.278 156.293 22.494 156.089 22.746C155.897 22.998 155.753 23.262 155.657 23.538C155.573 23.802 155.531 24.024 155.531 24.204V30H154.001V20.694ZM169.598 17.148H171.308V22.674H178.076V17.148H179.786V30H178.076V24.114H171.308V30H169.598V17.148ZM190.365 29.208C190.365 30.732 190.017 31.872 189.321 32.628C188.625 33.384 187.533 33.762 186.045 33.762C185.613 33.762 185.169 33.714 184.713 33.618C184.269 33.522 183.861 33.366 183.489 33.15C183.129 32.934 182.829 32.652 182.589 32.304C182.349 31.956 182.217 31.53 182.193 31.026H183.723C183.735 31.302 183.819 31.536 183.975 31.728C184.143 31.92 184.341 32.076 184.569 32.196C184.809 32.316 185.067 32.4 185.343 32.448C185.619 32.508 185.883 32.538 186.135 32.538C186.639 32.538 187.065 32.448 187.413 32.268C187.761 32.1 188.049 31.86 188.277 31.548C188.505 31.248 188.667 30.882 188.763 30.45C188.871 30.018 188.925 29.544 188.925 29.028V28.416H188.889C188.625 28.992 188.223 29.418 187.683 29.694C187.155 29.958 186.591 30.09 185.991 30.09C185.295 30.09 184.689 29.964 184.173 29.712C183.657 29.46 183.225 29.124 182.877 28.704C182.529 28.272 182.265 27.774 182.085 27.21C181.917 26.634 181.833 26.028 181.833 25.392C181.833 24.84 181.905 24.276 182.049 23.7C182.193 23.112 182.433 22.584 182.769 22.116C183.105 21.636 183.549 21.246 184.101 20.946C184.653 20.634 185.331 20.478 186.135 20.478C186.723 20.478 187.263 20.61 187.755 20.874C188.247 21.126 188.631 21.51 188.907 22.026H188.925V20.694H190.365V29.208ZM186.081 28.758C186.585 28.758 187.011 28.656 187.359 28.452C187.719 28.236 188.007 27.96 188.223 27.624C188.439 27.276 188.595 26.886 188.691 26.454C188.799 26.022 188.853 25.59 188.853 25.158C188.853 24.75 188.805 24.348 188.709 23.952C188.613 23.556 188.457 23.202 188.241 22.89C188.037 22.566 187.767 22.308 187.431 22.116C187.095 21.924 186.687 21.828 186.207 21.828C185.715 21.828 185.295 21.924 184.947 22.116C184.599 22.296 184.311 22.542 184.083 22.854C183.867 23.166 183.705 23.526 183.597 23.934C183.501 24.342 183.453 24.768 183.453 25.212C183.453 25.632 183.495 26.052 183.579 26.472C183.663 26.892 183.807 27.276 184.011 27.624C184.215 27.96 184.485 28.236 184.821 28.452C185.157 28.656 185.577 28.758 186.081 28.758Z" fill="black"/>
</svg>
