<svg width="221" height="47" viewBox="0 0 221 47" fill="none" xmlns="http://www.w3.org/2000/svg">
<rect x="0.5" y="0.5" width="220" height="46" rx="23" fill="white"/>
<rect x="0.5" y="0.5" width="220" height="46" rx="23" stroke="#B0B0B0"/>
<circle cx="19" cy="23.5" r="7" fill="#C30DD3"/>
<path d="M45.5865 21.018C45.3945 20.106 44.9685 19.422 44.3085 18.966C43.6605 18.51 42.8865 18.282 41.9865 18.282C41.2185 18.282 40.5585 18.426 40.0065 18.714C39.4665 19.002 39.0165 19.392 38.6565 19.884C38.3085 20.364 38.0505 20.916 37.8825 21.54C37.7145 22.164 37.6305 22.812 37.6305 23.484C37.6305 24.216 37.7145 24.912 37.8825 25.572C38.0505 26.22 38.3085 26.79 38.6565 27.282C39.0165 27.762 39.4725 28.146 40.0245 28.434C40.5765 28.722 41.2365 28.866 42.0045 28.866C42.5685 28.866 43.0665 28.776 43.4985 28.596C43.9425 28.404 44.3205 28.146 44.6325 27.822C44.9565 27.486 45.2085 27.09 45.3885 26.634C45.5685 26.178 45.6765 25.686 45.7125 25.158H47.4225C47.2545 26.778 46.6965 28.038 45.7485 28.938C44.8005 29.838 43.5045 30.288 41.8605 30.288C40.8645 30.288 39.9945 30.12 39.2505 29.784C38.5065 29.436 37.8885 28.962 37.3965 28.362C36.9045 27.762 36.5325 27.054 36.2805 26.238C36.0405 25.422 35.9205 24.546 35.9205 23.61C35.9205 22.674 36.0525 21.798 36.3165 20.982C36.5805 20.154 36.9645 19.434 37.4685 18.822C37.9845 18.21 38.6205 17.73 39.3765 17.382C40.1445 17.022 41.0205 16.842 42.0045 16.842C42.6765 16.842 43.3125 16.932 43.9125 17.112C44.5125 17.292 45.0465 17.556 45.5145 17.904C45.9825 18.252 46.3725 18.69 46.6845 19.218C46.9965 19.734 47.2005 20.334 47.2965 21.018H45.5865ZM57.5327 29.964C57.2687 30.12 56.9027 30.198 56.4347 30.198C56.0387 30.198 55.7207 30.09 55.4807 29.874C55.2527 29.646 55.1387 29.28 55.1387 28.776C54.7187 29.28 54.2267 29.646 53.6627 29.874C53.1107 30.09 52.5107 30.198 51.8627 30.198C51.4427 30.198 51.0407 30.15 50.6567 30.054C50.2847 29.958 49.9607 29.808 49.6847 29.604C49.4087 29.4 49.1867 29.136 49.0187 28.812C48.8627 28.476 48.7847 28.074 48.7847 27.606C48.7847 27.078 48.8747 26.646 49.0547 26.31C49.2347 25.974 49.4687 25.704 49.7567 25.5C50.0567 25.284 50.3927 25.122 50.7647 25.014C51.1487 24.906 51.5387 24.816 51.9347 24.744C52.3547 24.66 52.7507 24.6 53.1227 24.564C53.5067 24.516 53.8427 24.456 54.1307 24.384C54.4187 24.3 54.6467 24.186 54.8147 24.042C54.9827 23.886 55.0667 23.664 55.0667 23.376C55.0667 23.04 55.0007 22.77 54.8687 22.566C54.7487 22.362 54.5867 22.206 54.3827 22.098C54.1907 21.99 53.9687 21.918 53.7167 21.882C53.4767 21.846 53.2367 21.828 52.9967 21.828C52.3487 21.828 51.8087 21.954 51.3767 22.206C50.9447 22.446 50.7107 22.908 50.6747 23.592H49.1447C49.1687 23.016 49.2887 22.53 49.5047 22.134C49.7207 21.738 50.0087 21.42 50.3687 21.18C50.7287 20.928 51.1367 20.748 51.5927 20.64C52.0607 20.532 52.5587 20.478 53.0867 20.478C53.5067 20.478 53.9207 20.508 54.3287 20.568C54.7487 20.628 55.1267 20.754 55.4627 20.946C55.7987 21.126 56.0687 21.384 56.2727 21.72C56.4767 22.056 56.5787 22.494 56.5787 23.034V27.822C56.5787 28.182 56.5967 28.446 56.6327 28.614C56.6807 28.782 56.8247 28.866 57.0647 28.866C57.1967 28.866 57.3527 28.836 57.5327 28.776V29.964ZM55.0487 25.194C54.8567 25.338 54.6047 25.446 54.2927 25.518C53.9807 25.578 53.6507 25.632 53.3027 25.68C52.9667 25.716 52.6247 25.764 52.2767 25.824C51.9287 25.872 51.6167 25.956 51.3407 26.076C51.0647 26.196 50.8367 26.37 50.6567 26.598C50.4887 26.814 50.4047 27.114 50.4047 27.498C50.4047 27.75 50.4527 27.966 50.5487 28.146C50.6567 28.314 50.7887 28.452 50.9447 28.56C51.1127 28.668 51.3047 28.746 51.5207 28.794C51.7367 28.842 51.9647 28.866 52.2047 28.866C52.7087 28.866 53.1407 28.8 53.5007 28.668C53.8607 28.524 54.1547 28.35 54.3827 28.146C54.6107 27.93 54.7787 27.702 54.8867 27.462C54.9947 27.21 55.0487 26.976 55.0487 26.76V25.194ZM59.0467 17.148H60.5767V30H59.0467V17.148ZM69.2649 23.682C69.1449 23.094 68.8929 22.638 68.5089 22.314C68.1249 21.99 67.6089 21.828 66.9609 21.828C66.4089 21.828 65.9469 21.93 65.5749 22.134C65.2029 22.338 64.9029 22.608 64.6749 22.944C64.4589 23.28 64.3029 23.67 64.2069 24.114C64.1109 24.546 64.0629 24.996 64.0629 25.464C64.0629 25.896 64.1109 26.316 64.2069 26.724C64.3149 27.132 64.4769 27.498 64.6929 27.822C64.9089 28.134 65.1909 28.386 65.5389 28.578C65.8869 28.77 66.3009 28.866 66.7809 28.866C67.5369 28.866 68.1249 28.668 68.5449 28.272C68.9769 27.876 69.2409 27.318 69.3369 26.598H70.9029C70.7349 27.75 70.3029 28.638 69.6069 29.262C68.9229 29.886 67.9869 30.198 66.7989 30.198C66.0909 30.198 65.4609 30.084 64.9089 29.856C64.3689 29.628 63.9129 29.304 63.5409 28.884C63.1809 28.464 62.9049 27.966 62.7129 27.39C62.5329 26.802 62.4429 26.16 62.4429 25.464C62.4429 24.768 62.5329 24.12 62.7129 23.52C62.8929 22.908 63.1629 22.38 63.5229 21.936C63.8949 21.48 64.3569 21.126 64.9089 20.874C65.4609 20.61 66.1029 20.478 66.8349 20.478C67.3629 20.478 67.8549 20.544 68.3109 20.676C68.7789 20.796 69.1869 20.988 69.5349 21.252C69.8949 21.516 70.1889 21.852 70.4169 22.26C70.6449 22.656 70.7889 23.13 70.8489 23.682H69.2649ZM74.2349 19.02H72.7049V17.148H74.2349V19.02ZM72.7049 20.694H74.2349V30H72.7049V20.694ZM84.3091 30H82.8691V28.524H82.8331C82.5091 29.1 82.0951 29.526 81.5911 29.802C81.0871 30.066 80.4931 30.198 79.8091 30.198C79.1971 30.198 78.6871 30.12 78.2791 29.964C77.8711 29.796 77.5411 29.562 77.2891 29.262C77.0371 28.962 76.8571 28.608 76.7491 28.2C76.6531 27.78 76.6051 27.318 76.6051 26.814V20.694H78.1351V26.994C78.1351 27.57 78.3031 28.026 78.6391 28.362C78.9751 28.698 79.4371 28.866 80.0251 28.866C80.4931 28.866 80.8951 28.794 81.2311 28.65C81.5791 28.506 81.8671 28.302 82.0951 28.038C82.3231 27.774 82.4911 27.468 82.5991 27.12C82.7191 26.76 82.7791 26.37 82.7791 25.95V20.694H84.3091V30ZM86.6071 20.694H88.0471V22.062H88.0831C88.7791 21.006 89.7811 20.478 91.0891 20.478C91.6651 20.478 92.1871 20.598 92.6551 20.838C93.1231 21.078 93.4531 21.486 93.6451 22.062C93.9571 21.558 94.3651 21.168 94.8691 20.892C95.3851 20.616 95.9491 20.478 96.5611 20.478C97.0291 20.478 97.4491 20.532 97.8211 20.64C98.2051 20.736 98.5291 20.892 98.7931 21.108C99.0691 21.324 99.2791 21.606 99.4231 21.954C99.5791 22.29 99.6571 22.698 99.6571 23.178V30H98.1271V23.898C98.1271 23.61 98.1031 23.34 98.0551 23.088C98.0071 22.836 97.9171 22.62 97.7851 22.44C97.6531 22.248 97.4671 22.098 97.2271 21.99C96.9991 21.882 96.6991 21.828 96.3271 21.828C95.5711 21.828 94.9771 22.044 94.5451 22.476C94.1131 22.908 93.8971 23.484 93.8971 24.204V30H92.3671V23.898C92.3671 23.598 92.3371 23.322 92.2771 23.07C92.2291 22.818 92.1391 22.602 92.0071 22.422C91.8751 22.23 91.6951 22.086 91.4671 21.99C91.2511 21.882 90.9691 21.828 90.6211 21.828C90.1771 21.828 89.7931 21.918 89.4691 22.098C89.1571 22.278 88.8991 22.494 88.6951 22.746C88.5031 22.998 88.3591 23.262 88.2631 23.538C88.1791 23.802 88.1371 24.024 88.1371 24.204V30H86.6071V20.694ZM106.711 24.276H111.913V25.716H106.711V24.276ZM124.224 30H122.694V20.856H119.382V19.632C119.814 19.632 120.234 19.602 120.642 19.542C121.05 19.47 121.416 19.344 121.74 19.164C122.076 18.984 122.358 18.738 122.586 18.426C122.814 18.114 122.97 17.718 123.054 17.238H124.224V30ZM129.312 28.002H131.31V30H129.312V28.002ZM141.99 18.768C141.342 19.404 140.736 20.16 140.172 21.036C139.608 21.912 139.104 22.848 138.66 23.844C138.228 24.84 137.874 25.866 137.598 26.922C137.322 27.978 137.154 29.004 137.094 30H135.384C135.456 28.92 135.63 27.87 135.906 26.85C136.194 25.818 136.56 24.834 137.004 23.898C137.448 22.95 137.958 22.056 138.534 21.216C139.122 20.376 139.752 19.602 140.424 18.894H133.728V17.454H141.99V18.768ZM148.992 20.694H150.432V22.062H150.468C151.164 21.006 152.166 20.478 153.474 20.478C154.05 20.478 154.572 20.598 155.04 20.838C155.508 21.078 155.838 21.486 156.03 22.062C156.342 21.558 156.75 21.168 157.254 20.892C157.77 20.616 158.334 20.478 158.946 20.478C159.414 20.478 159.834 20.532 160.206 20.64C160.59 20.736 160.914 20.892 161.178 21.108C161.454 21.324 161.664 21.606 161.808 21.954C161.964 22.29 162.042 22.698 162.042 23.178V30H160.512V23.898C160.512 23.61 160.488 23.34 160.44 23.088C160.392 22.836 160.302 22.62 160.17 22.44C160.038 22.248 159.852 22.098 159.612 21.99C159.384 21.882 159.084 21.828 158.712 21.828C157.956 21.828 157.362 22.044 156.93 22.476C156.498 22.908 156.282 23.484 156.282 24.204V30H154.752V23.898C154.752 23.598 154.722 23.322 154.662 23.07C154.614 22.818 154.524 22.602 154.392 22.422C154.26 22.23 154.08 22.086 153.852 21.99C153.636 21.882 153.354 21.828 153.006 21.828C152.562 21.828 152.178 21.918 151.854 22.098C151.542 22.278 151.284 22.494 151.08 22.746C150.888 22.998 150.744 23.262 150.648 23.538C150.564 23.802 150.522 24.024 150.522 24.204V30H148.992V20.694ZM164.338 20.694H165.778V22.062H165.814C166.51 21.006 167.512 20.478 168.82 20.478C169.396 20.478 169.918 20.598 170.386 20.838C170.854 21.078 171.184 21.486 171.376 22.062C171.688 21.558 172.096 21.168 172.6 20.892C173.116 20.616 173.68 20.478 174.292 20.478C174.76 20.478 175.18 20.532 175.552 20.64C175.936 20.736 176.26 20.892 176.524 21.108C176.8 21.324 177.01 21.606 177.154 21.954C177.31 22.29 177.388 22.698 177.388 23.178V30H175.858V23.898C175.858 23.61 175.834 23.34 175.786 23.088C175.738 22.836 175.648 22.62 175.516 22.44C175.384 22.248 175.198 22.098 174.958 21.99C174.73 21.882 174.43 21.828 174.058 21.828C173.302 21.828 172.708 22.044 172.276 22.476C171.844 22.908 171.628 23.484 171.628 24.204V30H170.098V23.898C170.098 23.598 170.068 23.322 170.008 23.07C169.96 22.818 169.87 22.602 169.738 22.422C169.606 22.23 169.426 22.086 169.198 21.99C168.982 21.882 168.7 21.828 168.352 21.828C167.908 21.828 167.524 21.918 167.2 22.098C166.888 22.278 166.63 22.494 166.426 22.746C166.234 22.998 166.09 23.262 165.994 23.538C165.91 23.802 165.868 24.024 165.868 24.204V30H164.338V20.694ZM180.799 25.356C180.799 25.92 180.871 26.424 181.015 26.868C181.171 27.3 181.381 27.666 181.645 27.966C181.909 28.254 182.215 28.476 182.563 28.632C182.923 28.788 183.301 28.866 183.697 28.866C184.093 28.866 184.465 28.788 184.813 28.632C185.173 28.476 185.485 28.254 185.749 27.966C186.013 27.666 186.217 27.3 186.361 26.868C186.517 26.424 186.595 25.92 186.595 25.356C186.595 24.792 186.517 24.294 186.361 23.862C186.217 23.418 186.013 23.046 185.749 22.746C185.485 22.446 185.173 22.218 184.813 22.062C184.465 21.906 184.093 21.828 183.697 21.828C183.301 21.828 182.923 21.906 182.563 22.062C182.215 22.218 181.909 22.446 181.645 22.746C181.381 23.046 181.171 23.418 181.015 23.862C180.871 24.294 180.799 24.792 180.799 25.356ZM179.179 25.356C179.179 24.672 179.275 24.036 179.467 23.448C179.659 22.848 179.947 22.332 180.331 21.9C180.715 21.456 181.189 21.108 181.753 20.856C182.317 20.604 182.965 20.478 183.697 20.478C184.441 20.478 185.089 20.604 185.641 20.856C186.205 21.108 186.679 21.456 187.063 21.9C187.447 22.332 187.735 22.848 187.927 23.448C188.119 24.036 188.215 24.672 188.215 25.356C188.215 26.04 188.119 26.676 187.927 27.264C187.735 27.852 187.447 28.368 187.063 28.812C186.679 29.244 186.205 29.586 185.641 29.838C185.089 30.078 184.441 30.198 183.697 30.198C182.965 30.198 182.317 30.078 181.753 29.838C181.189 29.586 180.715 29.244 180.331 28.812C179.947 28.368 179.659 27.852 179.467 27.264C179.275 26.676 179.179 26.04 179.179 25.356ZM190.109 17.148H191.639V30H190.109V17.148ZM197.861 16.842H199.175L193.847 30.288H192.551L197.861 16.842ZM200.256 17.148H201.966V28.56H208.77V30H200.256V17.148Z" fill="black"/>
</svg>
