<svg width="206" height="47" viewBox="0 0 206 47" fill="none" xmlns="http://www.w3.org/2000/svg">
<rect x="0.5" y="0.5" width="205" height="46" rx="23" fill="white"/>
<rect x="0.5" y="0.5" width="205" height="46" rx="23" stroke="#B0B0B0"/>
<circle cx="19" cy="23.5" r="7" fill="#E6B523"/>
<path d="M43.9903 20.91C43.8943 19.986 43.5583 19.32 42.9823 18.912C42.4183 18.492 41.6923 18.282 40.8043 18.282C40.4443 18.282 40.0903 18.318 39.7423 18.39C39.3943 18.462 39.0823 18.582 38.8063 18.75C38.5423 18.918 38.3263 19.146 38.1583 19.434C38.0023 19.71 37.9243 20.058 37.9243 20.478C37.9243 20.874 38.0383 21.198 38.2663 21.45C38.5063 21.69 38.8183 21.888 39.2023 22.044C39.5983 22.2 40.0423 22.332 40.5343 22.44C41.0263 22.536 41.5243 22.644 42.0283 22.764C42.5443 22.884 43.0483 23.028 43.5403 23.196C44.0323 23.352 44.4703 23.568 44.8543 23.844C45.2503 24.12 45.5623 24.468 45.7903 24.888C46.0303 25.308 46.1503 25.836 46.1503 26.472C46.1503 27.156 45.9943 27.744 45.6823 28.236C45.3823 28.716 44.9923 29.112 44.5123 29.424C44.0323 29.724 43.4923 29.94 42.8923 30.072C42.3043 30.216 41.7163 30.288 41.1283 30.288C40.4083 30.288 39.7243 30.198 39.0763 30.018C38.4403 29.838 37.8763 29.568 37.3843 29.208C36.9043 28.836 36.5203 28.368 36.2323 27.804C35.9563 27.228 35.8183 26.55 35.8183 25.77H37.4383C37.4383 26.31 37.5403 26.778 37.7443 27.174C37.9603 27.558 38.2363 27.876 38.5723 28.128C38.9203 28.38 39.3223 28.566 39.7783 28.686C40.2343 28.806 40.7023 28.866 41.1823 28.866C41.5663 28.866 41.9503 28.83 42.3343 28.758C42.7303 28.686 43.0843 28.566 43.3963 28.398C43.7083 28.218 43.9603 27.978 44.1523 27.678C44.3443 27.378 44.4403 26.994 44.4403 26.526C44.4403 26.082 44.3203 25.722 44.0803 25.446C43.8523 25.17 43.5403 24.948 43.1443 24.78C42.7603 24.6 42.3223 24.456 41.8303 24.348C41.3383 24.24 40.8343 24.132 40.3183 24.024C39.8143 23.904 39.3163 23.772 38.8243 23.628C38.3323 23.472 37.8883 23.274 37.4923 23.034C37.1083 22.782 36.7963 22.464 36.5563 22.08C36.3283 21.684 36.2143 21.192 36.2143 20.604C36.2143 19.956 36.3463 19.398 36.6103 18.93C36.8743 18.45 37.2223 18.06 37.6543 17.76C38.0983 17.448 38.5963 17.22 39.1483 17.076C39.7123 16.92 40.2883 16.842 40.8763 16.842C41.5363 16.842 42.1483 16.92 42.7123 17.076C43.2763 17.232 43.7683 17.478 44.1883 17.814C44.6203 18.15 44.9563 18.576 45.1963 19.092C45.4483 19.596 45.5863 20.202 45.6103 20.91H43.9903ZM48.0662 17.148H49.5962V30H48.0662V17.148ZM58.4285 24.456C58.4045 24.096 58.3205 23.754 58.1765 23.43C58.0445 23.106 57.8585 22.83 57.6185 22.602C57.3905 22.362 57.1145 22.176 56.7905 22.044C56.4785 21.9 56.1305 21.828 55.7465 21.828C55.3505 21.828 54.9905 21.9 54.6665 22.044C54.3545 22.176 54.0845 22.362 53.8565 22.602C53.6285 22.842 53.4485 23.124 53.3165 23.448C53.1845 23.76 53.1065 24.096 53.0825 24.456H58.4285ZM59.9045 27.048C59.7005 28.092 59.2505 28.878 58.5545 29.406C57.8585 29.934 56.9825 30.198 55.9265 30.198C55.1825 30.198 54.5345 30.078 53.9825 29.838C53.4425 29.598 52.9865 29.262 52.6145 28.83C52.2425 28.398 51.9605 27.882 51.7685 27.282C51.5885 26.682 51.4865 26.028 51.4625 25.32C51.4625 24.612 51.5705 23.964 51.7865 23.376C52.0025 22.788 52.3025 22.278 52.6865 21.846C53.0825 21.414 53.5445 21.078 54.0725 20.838C54.6125 20.598 55.2005 20.478 55.8365 20.478C56.6645 20.478 57.3485 20.652 57.8885 21C58.4405 21.336 58.8785 21.768 59.2025 22.296C59.5385 22.824 59.7665 23.4 59.8865 24.024C60.0185 24.648 60.0725 25.242 60.0485 25.806H53.0825C53.0705 26.214 53.1185 26.604 53.2265 26.976C53.3345 27.336 53.5085 27.66 53.7485 27.948C53.9885 28.224 54.2945 28.446 54.6665 28.614C55.0385 28.782 55.4765 28.866 55.9805 28.866C56.6285 28.866 57.1565 28.716 57.5645 28.416C57.9845 28.116 58.2605 27.66 58.3925 27.048H59.9045ZM68.0964 24.456C68.0724 24.096 67.9884 23.754 67.8444 23.43C67.7124 23.106 67.5264 22.83 67.2864 22.602C67.0584 22.362 66.7824 22.176 66.4584 22.044C66.1464 21.9 65.7984 21.828 65.4144 21.828C65.0184 21.828 64.6584 21.9 64.3344 22.044C64.0224 22.176 63.7524 22.362 63.5244 22.602C63.2964 22.842 63.1164 23.124 62.9844 23.448C62.8524 23.76 62.7744 24.096 62.7504 24.456H68.0964ZM69.5724 27.048C69.3684 28.092 68.9184 28.878 68.2224 29.406C67.5264 29.934 66.6504 30.198 65.5944 30.198C64.8504 30.198 64.2024 30.078 63.6504 29.838C63.1104 29.598 62.6544 29.262 62.2824 28.83C61.9104 28.398 61.6284 27.882 61.4364 27.282C61.2564 26.682 61.1544 26.028 61.1304 25.32C61.1304 24.612 61.2384 23.964 61.4544 23.376C61.6704 22.788 61.9704 22.278 62.3544 21.846C62.7504 21.414 63.2124 21.078 63.7404 20.838C64.2804 20.598 64.8684 20.478 65.5044 20.478C66.3324 20.478 67.0164 20.652 67.5564 21C68.1084 21.336 68.5464 21.768 68.8704 22.296C69.2064 22.824 69.4344 23.4 69.5544 24.024C69.6864 24.648 69.7404 25.242 69.7164 25.806H62.7504C62.7384 26.214 62.7864 26.604 62.8944 26.976C63.0024 27.336 63.1764 27.66 63.4164 27.948C63.6564 28.224 63.9624 28.446 64.3344 28.614C64.7064 28.782 65.1444 28.866 65.6484 28.866C66.2964 28.866 66.8244 28.716 67.2324 28.416C67.6524 28.116 67.9284 27.66 68.0604 27.048H69.5724ZM71.3564 20.694H72.8864V21.954H72.9224C73.1744 21.438 73.5704 21.066 74.1104 20.838C74.6504 20.598 75.2444 20.478 75.8924 20.478C76.6124 20.478 77.2364 20.61 77.7644 20.874C78.3044 21.138 78.7484 21.498 79.0964 21.954C79.4564 22.398 79.7264 22.914 79.9064 23.502C80.0864 24.09 80.1764 24.714 80.1764 25.374C80.1764 26.034 80.0864 26.658 79.9064 27.246C79.7384 27.834 79.4744 28.35 79.1144 28.794C78.7664 29.226 78.3224 29.568 77.7824 29.82C77.2544 30.072 76.6364 30.198 75.9284 30.198C75.7004 30.198 75.4424 30.174 75.1544 30.126C74.8784 30.078 74.6024 30 74.3264 29.892C74.0504 29.784 73.7864 29.64 73.5344 29.46C73.2944 29.268 73.0904 29.034 72.9224 28.758H72.8864V33.546H71.3564V20.694ZM78.5564 25.266C78.5564 24.834 78.4964 24.414 78.3764 24.006C78.2684 23.586 78.0944 23.214 77.8544 22.89C77.6264 22.566 77.3264 22.308 76.9544 22.116C76.5944 21.924 76.1684 21.828 75.6764 21.828C75.1604 21.828 74.7224 21.93 74.3624 22.134C74.0024 22.338 73.7084 22.608 73.4804 22.944C73.2524 23.268 73.0844 23.64 72.9764 24.06C72.8804 24.48 72.8324 24.906 72.8324 25.338C72.8324 25.794 72.8864 26.238 72.9944 26.67C73.1024 27.09 73.2704 27.462 73.4984 27.786C73.7384 28.11 74.0444 28.374 74.4164 28.578C74.7884 28.77 75.2384 28.866 75.7664 28.866C76.2944 28.866 76.7324 28.764 77.0804 28.56C77.4404 28.356 77.7284 28.086 77.9444 27.75C78.1604 27.414 78.3164 27.03 78.4124 26.598C78.5084 26.166 78.5564 25.722 78.5564 25.266ZM88.0981 25.428C88.0981 25.86 88.1521 26.286 88.2601 26.706C88.3801 27.114 88.5541 27.48 88.7821 27.804C89.0221 28.128 89.3221 28.386 89.6821 28.578C90.0541 28.77 90.4861 28.866 90.9781 28.866C91.4941 28.866 91.9321 28.764 92.2921 28.56C92.6521 28.356 92.9461 28.092 93.1741 27.768C93.4021 27.432 93.5641 27.054 93.6601 26.634C93.7681 26.214 93.8221 25.788 93.8221 25.356C93.8221 24.9 93.7681 24.462 93.6601 24.042C93.5521 23.61 93.3781 23.232 93.1381 22.908C92.9101 22.584 92.6101 22.326 92.2381 22.134C91.8661 21.93 91.4161 21.828 90.8881 21.828C90.3721 21.828 89.9341 21.93 89.5741 22.134C89.2141 22.338 88.9261 22.608 88.7101 22.944C88.4941 23.28 88.3381 23.664 88.2421 24.096C88.1461 24.528 88.0981 24.972 88.0981 25.428ZM95.2981 33.546H93.7681V28.74H93.7321C93.4801 29.256 93.0841 29.628 92.5441 29.856C92.0041 30.084 91.4101 30.198 90.7621 30.198C90.0421 30.198 89.4121 30.066 88.8721 29.802C88.3441 29.538 87.9001 29.184 87.5401 28.74C87.1921 28.296 86.9281 27.78 86.7481 27.192C86.5681 26.604 86.4781 25.98 86.4781 25.32C86.4781 24.66 86.5621 24.036 86.7301 23.448C86.9101 22.86 87.1741 22.35 87.5221 21.918C87.8821 21.474 88.3261 21.126 88.8541 20.874C89.3941 20.61 90.0181 20.478 90.7261 20.478C90.9661 20.478 91.2241 20.502 91.5001 20.55C91.7761 20.598 92.0521 20.682 92.3281 20.802C92.6041 20.91 92.8621 21.06 93.1021 21.252C93.3541 21.432 93.5641 21.66 93.7321 21.936H93.7681V20.694H95.2981V33.546ZM105.356 30H103.916V28.524H103.88C103.556 29.1 103.142 29.526 102.638 29.802C102.134 30.066 101.54 30.198 100.856 30.198C100.244 30.198 99.734 30.12 99.326 29.964C98.918 29.796 98.588 29.562 98.336 29.262C98.084 28.962 97.904 28.608 97.796 28.2C97.7 27.78 97.652 27.318 97.652 26.814V20.694H99.182V26.994C99.182 27.57 99.35 28.026 99.686 28.362C100.022 28.698 100.484 28.866 101.072 28.866C101.54 28.866 101.942 28.794 102.278 28.65C102.626 28.506 102.914 28.302 103.142 28.038C103.37 27.774 103.538 27.468 103.646 27.12C103.766 26.76 103.826 26.37 103.826 25.95V20.694H105.356V30ZM115.898 29.964C115.634 30.12 115.268 30.198 114.8 30.198C114.404 30.198 114.086 30.09 113.846 29.874C113.618 29.646 113.504 29.28 113.504 28.776C113.084 29.28 112.592 29.646 112.028 29.874C111.476 30.09 110.876 30.198 110.228 30.198C109.808 30.198 109.406 30.15 109.022 30.054C108.65 29.958 108.326 29.808 108.05 29.604C107.774 29.4 107.552 29.136 107.384 28.812C107.228 28.476 107.15 28.074 107.15 27.606C107.15 27.078 107.24 26.646 107.42 26.31C107.6 25.974 107.834 25.704 108.122 25.5C108.422 25.284 108.758 25.122 109.13 25.014C109.514 24.906 109.904 24.816 110.3 24.744C110.72 24.66 111.116 24.6 111.488 24.564C111.872 24.516 112.208 24.456 112.496 24.384C112.784 24.3 113.012 24.186 113.18 24.042C113.348 23.886 113.432 23.664 113.432 23.376C113.432 23.04 113.366 22.77 113.234 22.566C113.114 22.362 112.952 22.206 112.748 22.098C112.556 21.99 112.334 21.918 112.082 21.882C111.842 21.846 111.602 21.828 111.362 21.828C110.714 21.828 110.174 21.954 109.742 22.206C109.31 22.446 109.076 22.908 109.04 23.592H107.51C107.534 23.016 107.654 22.53 107.87 22.134C108.086 21.738 108.374 21.42 108.734 21.18C109.094 20.928 109.502 20.748 109.958 20.64C110.426 20.532 110.924 20.478 111.452 20.478C111.872 20.478 112.286 20.508 112.694 20.568C113.114 20.628 113.492 20.754 113.828 20.946C114.164 21.126 114.434 21.384 114.638 21.72C114.842 22.056 114.944 22.494 114.944 23.034V27.822C114.944 28.182 114.962 28.446 114.998 28.614C115.046 28.782 115.19 28.866 115.43 28.866C115.562 28.866 115.718 28.836 115.898 28.776V29.964ZM113.414 25.194C113.222 25.338 112.97 25.446 112.658 25.518C112.346 25.578 112.016 25.632 111.668 25.68C111.332 25.716 110.99 25.764 110.642 25.824C110.294 25.872 109.982 25.956 109.706 26.076C109.43 26.196 109.202 26.37 109.022 26.598C108.854 26.814 108.77 27.114 108.77 27.498C108.77 27.75 108.818 27.966 108.914 28.146C109.022 28.314 109.154 28.452 109.31 28.56C109.478 28.668 109.67 28.746 109.886 28.794C110.102 28.842 110.33 28.866 110.57 28.866C111.074 28.866 111.506 28.8 111.866 28.668C112.226 28.524 112.52 28.35 112.748 28.146C112.976 27.93 113.144 27.702 113.252 27.462C113.36 27.21 113.414 26.976 113.414 26.76V25.194ZM117.412 17.148H118.942V30H117.412V17.148ZM122.932 19.02H121.402V17.148H122.932V19.02ZM121.402 20.694H122.932V30H121.402V20.694ZM127.426 20.694H129.28V22.044H127.426V27.822C127.426 28.002 127.438 28.146 127.462 28.254C127.498 28.362 127.558 28.446 127.642 28.506C127.726 28.566 127.84 28.608 127.984 28.632C128.14 28.644 128.338 28.65 128.578 28.65H129.28V30H128.11C127.714 30 127.372 29.976 127.084 29.928C126.808 29.868 126.58 29.766 126.4 29.622C126.232 29.478 126.106 29.274 126.022 29.01C125.938 28.746 125.896 28.398 125.896 27.966V22.044H124.312V20.694H125.896V17.904H127.426V20.694ZM134.634 31.242C134.454 31.698 134.274 32.082 134.094 32.394C133.926 32.706 133.734 32.958 133.518 33.15C133.314 33.354 133.08 33.498 132.816 33.582C132.564 33.678 132.27 33.726 131.934 33.726C131.754 33.726 131.574 33.714 131.394 33.69C131.214 33.666 131.04 33.624 130.872 33.564V32.16C131.004 32.22 131.154 32.268 131.322 32.304C131.502 32.352 131.652 32.376 131.772 32.376C132.084 32.376 132.342 32.298 132.546 32.142C132.762 31.998 132.924 31.788 133.032 31.512L133.662 29.946L129.972 20.694H131.7L134.418 28.308H134.454L137.064 20.694H138.684L134.634 31.242ZM144.738 24.276H149.94V25.716H144.738V24.276ZM158.634 20.55C158.634 20.898 158.694 21.204 158.814 21.468C158.934 21.72 159.096 21.93 159.3 22.098C159.504 22.266 159.744 22.392 160.02 22.476C160.296 22.56 160.59 22.602 160.902 22.602C161.514 22.602 162.018 22.422 162.414 22.062C162.81 21.702 163.008 21.198 163.008 20.55C163.008 19.902 162.804 19.416 162.396 19.092C162 18.756 161.49 18.588 160.866 18.588C160.566 18.588 160.278 18.63 160.002 18.714C159.726 18.798 159.486 18.924 159.282 19.092C159.09 19.26 158.934 19.464 158.814 19.704C158.694 19.944 158.634 20.226 158.634 20.55ZM157.014 20.496C157.014 19.968 157.116 19.506 157.32 19.11C157.524 18.702 157.8 18.36 158.148 18.084C158.496 17.808 158.892 17.598 159.336 17.454C159.792 17.31 160.266 17.238 160.758 17.238C161.454 17.238 162.048 17.334 162.54 17.526C163.032 17.706 163.428 17.952 163.728 18.264C164.04 18.564 164.268 18.912 164.412 19.308C164.556 19.692 164.628 20.088 164.628 20.496C164.628 21.072 164.466 21.6 164.142 22.08C163.83 22.548 163.404 22.902 162.864 23.142C163.632 23.382 164.202 23.778 164.574 24.33C164.946 24.87 165.132 25.536 165.132 26.328C165.132 26.952 165.018 27.504 164.79 27.984C164.574 28.464 164.274 28.872 163.89 29.208C163.518 29.532 163.074 29.778 162.558 29.946C162.042 30.114 161.49 30.198 160.902 30.198C160.29 30.198 159.72 30.12 159.192 29.964C158.664 29.808 158.202 29.568 157.806 29.244C157.422 28.92 157.116 28.518 156.888 28.038C156.672 27.546 156.564 26.976 156.564 26.328C156.564 25.572 156.756 24.918 157.14 24.366C157.524 23.802 158.076 23.394 158.796 23.142C158.256 22.926 157.824 22.578 157.5 22.098C157.176 21.606 157.014 21.072 157.014 20.496ZM158.184 26.4C158.184 27.168 158.436 27.774 158.94 28.218C159.456 28.65 160.11 28.866 160.902 28.866C161.286 28.866 161.634 28.806 161.946 28.686C162.27 28.554 162.546 28.38 162.774 28.164C163.014 27.936 163.194 27.672 163.314 27.372C163.446 27.072 163.512 26.742 163.512 26.382C163.512 26.034 163.44 25.716 163.296 25.428C163.164 25.128 162.978 24.87 162.738 24.654C162.498 24.438 162.216 24.27 161.892 24.15C161.58 24.018 161.244 23.952 160.884 23.952C160.512 23.952 160.158 24.012 159.822 24.132C159.498 24.24 159.21 24.402 158.958 24.618C158.718 24.834 158.526 25.092 158.382 25.392C158.25 25.692 158.184 26.028 158.184 26.4ZM168.222 23.718C168.222 24.198 168.234 24.738 168.258 25.338C168.294 25.926 168.39 26.484 168.546 27.012C168.714 27.528 168.978 27.966 169.338 28.326C169.698 28.686 170.202 28.866 170.85 28.866C171.498 28.866 172.002 28.686 172.362 28.326C172.722 27.966 172.98 27.528 173.136 27.012C173.304 26.484 173.4 25.926 173.424 25.338C173.46 24.738 173.478 24.198 173.478 23.718C173.478 23.406 173.472 23.064 173.46 22.692C173.46 22.308 173.43 21.93 173.37 21.558C173.322 21.174 173.244 20.802 173.136 20.442C173.04 20.082 172.89 19.77 172.686 19.506C172.494 19.23 172.248 19.008 171.948 18.84C171.648 18.672 171.282 18.588 170.85 18.588C170.418 18.588 170.052 18.672 169.752 18.84C169.452 19.008 169.2 19.23 168.996 19.506C168.804 19.77 168.654 20.082 168.546 20.442C168.45 20.802 168.372 21.174 168.312 21.558C168.264 21.93 168.234 22.308 168.222 22.692C168.222 23.064 168.222 23.406 168.222 23.718ZM166.602 23.736C166.602 23.268 166.614 22.782 166.638 22.278C166.662 21.774 166.722 21.282 166.818 20.802C166.914 20.322 167.052 19.866 167.232 19.434C167.412 19.002 167.658 18.624 167.97 18.3C168.282 17.976 168.672 17.718 169.14 17.526C169.62 17.334 170.19 17.238 170.85 17.238C171.51 17.238 172.074 17.334 172.542 17.526C173.022 17.718 173.418 17.976 173.73 18.3C174.042 18.624 174.288 19.002 174.468 19.434C174.648 19.866 174.786 20.322 174.882 20.802C174.978 21.282 175.038 21.774 175.062 22.278C175.086 22.782 175.098 23.268 175.098 23.736C175.098 24.204 175.086 24.69 175.062 25.194C175.038 25.698 174.978 26.19 174.882 26.67C174.786 27.15 174.648 27.606 174.468 28.038C174.288 28.458 174.042 28.83 173.73 29.154C173.418 29.478 173.028 29.736 172.56 29.928C172.092 30.108 171.522 30.198 170.85 30.198C170.19 30.198 169.62 30.108 169.14 29.928C168.672 29.736 168.282 29.478 167.97 29.154C167.658 28.83 167.412 28.458 167.232 28.038C167.052 27.606 166.914 27.15 166.818 26.67C166.722 26.19 166.662 25.698 166.638 25.194C166.614 24.69 166.602 24.204 166.602 23.736ZM178.854 20.856C178.854 21.12 178.866 21.408 178.89 21.72C178.926 22.02 178.998 22.302 179.106 22.566C179.214 22.818 179.364 23.034 179.556 23.214C179.76 23.382 180.03 23.466 180.366 23.466C180.714 23.466 180.99 23.382 181.194 23.214C181.398 23.046 181.554 22.836 181.662 22.584C181.782 22.32 181.86 22.032 181.896 21.72C181.932 21.408 181.95 21.114 181.95 20.838C181.95 20.574 181.932 20.292 181.896 19.992C181.872 19.68 181.806 19.398 181.698 19.146C181.59 18.882 181.434 18.666 181.23 18.498C181.038 18.318 180.768 18.228 180.42 18.228C180.084 18.228 179.814 18.318 179.61 18.498C179.406 18.666 179.244 18.882 179.124 19.146C179.016 19.398 178.944 19.68 178.908 19.992C178.872 20.292 178.854 20.58 178.854 20.856ZM177.504 20.892C177.504 20.4 177.552 19.938 177.648 19.506C177.744 19.062 177.906 18.672 178.134 18.336C178.362 18 178.662 17.736 179.034 17.544C179.406 17.34 179.868 17.238 180.42 17.238C180.984 17.238 181.446 17.334 181.806 17.526C182.178 17.718 182.472 17.976 182.688 18.3C182.916 18.624 183.072 19.008 183.156 19.452C183.252 19.884 183.3 20.346 183.3 20.838C183.3 21.306 183.246 21.762 183.138 22.206C183.042 22.638 182.874 23.022 182.634 23.358C182.406 23.682 182.112 23.946 181.752 24.15C181.392 24.354 180.948 24.456 180.42 24.456C179.88 24.456 179.424 24.366 179.052 24.186C178.68 23.994 178.38 23.736 178.152 23.412C177.924 23.088 177.756 22.71 177.648 22.278C177.552 21.846 177.504 21.384 177.504 20.892ZM187.746 26.616C187.746 26.88 187.758 27.168 187.782 27.48C187.818 27.78 187.89 28.062 187.998 28.326C188.106 28.578 188.256 28.794 188.448 28.974C188.652 29.142 188.922 29.226 189.258 29.226C189.606 29.226 189.882 29.142 190.086 28.974C190.29 28.806 190.446 28.596 190.554 28.344C190.674 28.08 190.752 27.792 190.788 27.48C190.824 27.168 190.842 26.874 190.842 26.598C190.842 26.334 190.824 26.052 190.788 25.752C190.764 25.44 190.698 25.158 190.59 24.906C190.482 24.642 190.326 24.426 190.122 24.258C189.93 24.078 189.66 23.988 189.312 23.988C188.976 23.988 188.706 24.078 188.502 24.258C188.298 24.426 188.136 24.642 188.016 24.906C187.908 25.158 187.836 25.44 187.8 25.752C187.764 26.052 187.746 26.34 187.746 26.616ZM186.396 26.652C186.396 26.16 186.444 25.698 186.54 25.266C186.636 24.822 186.798 24.432 187.026 24.096C187.254 23.76 187.554 23.496 187.926 23.304C188.298 23.1 188.76 22.998 189.312 22.998C189.876 22.998 190.338 23.094 190.698 23.286C191.07 23.478 191.364 23.736 191.58 24.06C191.808 24.384 191.964 24.768 192.048 25.212C192.144 25.644 192.192 26.106 192.192 26.598C192.192 27.066 192.138 27.522 192.03 27.966C191.934 28.398 191.766 28.782 191.526 29.118C191.298 29.442 191.004 29.706 190.644 29.91C190.284 30.102 189.84 30.198 189.312 30.198C188.772 30.198 188.316 30.108 187.944 29.928C187.572 29.736 187.272 29.484 187.044 29.172C186.816 28.848 186.648 28.47 186.54 28.038C186.444 27.606 186.396 27.144 186.396 26.652ZM188.916 17.004H190.446L180.78 30.378H179.232L188.916 17.004Z" fill="black"/>
</svg>
