<svg width="31" height="31" viewBox="0 0 31 31" fill="none" xmlns="http://www.w3.org/2000/svg">
<g clip-path="url(#clip0_313_2)">
<path d="M21.7936 10.7386C21.6591 10.3902 21.4531 10.0739 21.1889 9.81001C20.9247 9.54611 20.6082 9.34047 20.2597 9.20633C19.7799 9.02861 19.273 8.93467 18.7614 8.92863C17.9105 8.88988 17.6554 8.88019 15.4999 8.88019C13.3445 8.88019 13.0893 8.88988 12.2385 8.92863C11.7263 8.93449 11.2189 9.02843 10.7385 9.20633C10.3902 9.34083 10.0739 9.54681 9.80995 9.81099C9.54605 10.0752 9.34041 10.3917 9.20627 10.7402C9.02855 11.22 8.93461 11.7269 8.92856 12.2385C8.88981 13.0894 8.88013 13.3445 8.88013 15.5C8.88013 17.6554 8.88981 17.9106 8.92856 18.7614C8.93443 19.2736 9.02837 19.781 9.20627 20.2614C9.34077 20.6097 9.54675 20.926 9.81093 21.1899C10.0751 21.4539 10.3916 21.6595 10.7401 21.7936C11.22 21.9713 11.7268 22.0653 12.2385 22.0713C13.0893 22.1101 13.3445 22.1198 15.4999 22.1198C17.6554 22.1198 17.9105 22.1101 18.7614 22.0713C19.2736 22.0655 19.781 21.9715 20.2613 21.7936C20.6097 21.6591 20.926 21.4532 21.1899 21.189C21.4538 20.9248 21.6594 20.6083 21.7936 20.2598C21.9713 19.7799 22.0652 19.2731 22.0713 18.7614C22.11 17.9106 22.1197 17.6554 22.1197 15.5C22.1197 13.3445 22.11 13.0894 22.0713 12.2385C22.0654 11.7263 21.9715 11.2189 21.7936 10.7386ZM15.4999 19.6462C14.6799 19.6462 13.8782 19.4031 13.1964 18.9475C12.5145 18.4919 11.9831 17.8443 11.6693 17.0867C11.3555 16.3291 11.2734 15.4954 11.4333 14.6911C11.5933 13.8868 11.9882 13.148 12.5681 12.5681C13.1479 11.9883 13.8867 11.5934 14.691 11.4334C15.4953 11.2734 16.329 11.3555 17.0866 11.6693C17.8442 11.9832 18.4918 12.5146 18.9474 13.1964C19.403 13.8783 19.6462 14.6799 19.6462 15.5C19.6462 16.5996 19.2093 17.6542 18.4318 18.4318C17.6542 19.2094 16.5996 19.6462 15.4999 19.6462ZM19.8092 12.1594C19.6176 12.1594 19.4303 12.1026 19.271 11.9961C19.1117 11.8897 18.9876 11.7384 18.9142 11.5614C18.8409 11.3844 18.8217 11.1896 18.8591 11.0017C18.8965 10.8137 18.9887 10.6411 19.1242 10.5056C19.2597 10.3702 19.4323 10.2779 19.6202 10.2405C19.8082 10.2031 20.003 10.2223 20.18 10.2956C20.357 10.369 20.5083 10.4931 20.6147 10.6524C20.7212 10.8118 20.778 10.9991 20.778 11.1907C20.778 11.4476 20.6759 11.694 20.4943 11.8757C20.3126 12.0573 20.0662 12.1594 19.8092 12.1594Z" fill="black"/>
<path d="M15.5001 18.1915C16.9866 18.1915 18.1916 16.9865 18.1916 15.5C18.1916 14.0135 16.9866 12.8085 15.5001 12.8085C14.0136 12.8085 12.8086 14.0135 12.8086 15.5C12.8086 16.9865 14.0136 18.1915 15.5001 18.1915Z" fill="black"/>
<path d="M15.5 0C12.4344 0 9.43763 0.909059 6.88867 2.61222C4.33971 4.31538 2.35303 6.73615 1.17987 9.56841C0.00671588 12.4007 -0.300236 15.5172 0.297835 18.5239C0.895906 21.5306 2.37214 24.2924 4.53985 26.4602C6.70757 28.6279 9.4694 30.1041 12.4761 30.7022C15.4828 31.3002 18.5993 30.9933 21.4316 29.8201C24.2639 28.647 26.6846 26.6603 28.3878 24.1113C30.0909 21.5624 31 18.5656 31 15.5C31 11.3891 29.367 7.44666 26.4602 4.53984C23.5533 1.63303 19.6109 0 15.5 0ZM23.5245 18.8293C23.5106 19.4987 23.3834 20.1609 23.1483 20.7878C22.9409 21.3239 22.6239 21.8109 22.2174 22.2174C21.8109 22.6238 21.3239 22.9409 20.7878 23.1483C20.1609 23.3834 19.4987 23.5106 18.8293 23.5245C17.9671 23.5632 17.6926 23.5729 15.5 23.5729C13.3074 23.5729 13.0329 23.5632 12.1707 23.5245C11.5013 23.5106 10.8391 23.3834 10.2122 23.1483C9.67608 22.9409 9.18914 22.6238 8.78265 22.2174C8.37616 21.8109 8.05908 21.3239 7.85173 20.7878C7.61658 20.1609 7.48938 19.4987 7.47553 18.8293C7.43678 17.9671 7.42709 17.6926 7.42709 15.5C7.42709 13.3074 7.43678 13.0329 7.47553 12.1707C7.48938 11.5013 7.61658 10.8391 7.85173 10.2122C8.05908 9.67607 8.37616 9.18914 8.78265 8.78264C9.18914 8.37615 9.67608 8.05907 10.2122 7.85172C10.8391 7.61657 11.5013 7.48937 12.1707 7.47552C13.0329 7.43677 13.3074 7.42708 15.5 7.42708C17.6926 7.42708 17.9671 7.43677 18.8293 7.47552C19.4987 7.48937 20.1609 7.61657 20.7878 7.85172C21.3239 8.05907 21.8109 8.37615 22.2174 8.78264C22.6239 9.18914 22.9409 9.67607 23.1483 10.2122C23.3834 10.8391 23.5106 11.5013 23.5245 12.1707C23.5632 13.0329 23.5729 13.3074 23.5729 15.5C23.5729 17.6926 23.5632 17.9671 23.5245 18.8293Z" fill="black"/>
</g>
<defs>
<clipPath id="clip0_313_2">
<rect width="31" height="31" fill="white"/>
</clipPath>
</defs>
</svg>
