<svg width="30" height="30" viewBox="0 0 30 30" fill="none" xmlns="http://www.w3.org/2000/svg">
<g clip-path="url(#clip0_313_8)">
<path d="M30 15C30 15.4052 29.9844 15.8026 29.9455 16.2C29.6571 19.8468 28.0442 23.1429 25.5974 25.5974C22.8779 28.3169 19.1299 30 15 30C13.8857 30 12.8026 29.8753 11.7662 29.6416C11.0338 29.4857 10.3325 29.2753 9.64675 29.0104C4.02078 26.8442 0 21.3662 0 15C0 10.8779 1.69091 7.12208 4.4026 4.4026C7.12208 1.68312 10.8701 0 15 0C19.1299 0 22.8779 1.68312 25.5974 4.4026C27.2961 6.10909 28.5974 8.22078 29.3299 10.574C29.6493 11.6104 29.8597 12.6857 29.9455 13.8C29.9532 13.8779 29.961 13.9636 29.961 14.0416C29.9922 14.361 30 14.6727 30 15Z" fill="url(#paint0_linear_313_8)"/>
<path d="M30.0001 15C30.0001 15.4052 29.9845 15.8026 29.9456 16.2C29.6572 19.8467 28.0443 23.1428 25.5975 25.5974C22.878 28.3169 19.13 30 15.0001 30C13.8858 30 12.8027 29.8753 11.7663 29.6415L6.31958 23.9376L13.0131 16.1688L6.42088 6.5766H12.1326L17.0261 11.5013L21.2572 6.5766H23.6261L29.7118 13.0909C29.8053 13.4026 29.891 13.7221 29.9611 14.0415C29.9923 14.361 30.0001 14.6727 30.0001 15Z" fill="#161616"/>
<path d="M24.0625 23.9377H18.3508L14.0651 17.6961L8.69622 23.9377H6.32739L13.0131 16.1688L6.42869 6.58441H12.1404L16.1923 12.4831L21.2651 6.58441H23.6339L17.2443 14.0104L24.0702 23.9377H24.0625ZM18.7248 23.2286H22.7222L16.3482 13.9558L22.091 7.27792H21.5845L16.1222 13.6286L11.7586 7.27792H7.76116L13.9014 16.2078L7.86246 23.2286H8.36895L14.1274 16.5351L18.7248 23.2286ZM22.0988 22.9013H19.0287L8.36895 7.65974H11.4391L22.0988 22.9013ZM19.3949 22.2H20.743L11.0728 8.36883H9.72479L19.3949 22.2Z" fill="white"/>
</g>
<defs>
<linearGradient id="paint0_linear_313_8" x1="2.01818" y1="7.5039" x2="27.9818" y2="22.4961" gradientUnits="userSpaceOnUse">
<stop/>
<stop offset="0.72"/>
<stop offset="1"/>
</linearGradient>
<clipPath id="clip0_313_8">
<rect width="30" height="30" fill="white"/>
</clipPath>
</defs>
</svg>
