<svg width="960" height="55" viewBox="0 0 960 55" fill="none" xmlns="http://www.w3.org/2000/svg">
<rect width="960" height="55" fill="url(#paint0_linear_20_267)"/>
<path d="M65.6938 15.58H74.3038C75.4238 15.58 76.3638 15.7 77.1238 15.94C77.8838 16.16 78.5138 16.46 79.0138 16.84C79.5138 17.2 79.8938 17.62 80.1538 18.1C80.4338 18.56 80.6338 19.03 80.7538 19.51C80.8738 19.99 80.9438 20.46 80.9638 20.92C80.9838 21.38 80.9938 21.78 80.9938 22.12C80.9938 22.14 80.9738 22.32 80.9338 22.66C80.9138 23 80.8238 23.42 80.6638 23.92C80.5238 24.4 80.2938 24.93 79.9738 25.51C79.6538 26.07 79.2038 26.6 78.6238 27.1C78.0438 27.58 77.3038 27.98 76.4038 28.3C75.5238 28.62 74.4338 28.78 73.1338 28.78H66.7138L65.0038 37H61.2538L65.6938 15.58ZM67.3438 25.72H73.0138C73.8538 25.72 74.5438 25.6 75.0838 25.36C75.6438 25.1 76.0738 24.77 76.3738 24.37C76.6938 23.97 76.9138 23.53 77.0338 23.05C77.1738 22.55 77.2438 22.06 77.2438 21.58C77.2438 21.28 77.1938 20.96 77.0938 20.62C77.0138 20.28 76.8438 19.96 76.5838 19.66C76.3438 19.36 75.9838 19.12 75.5038 18.94C75.0438 18.74 74.4338 18.64 73.6738 18.64H68.8138L67.3438 25.72ZM93.2036 27.88C93.2236 27.78 93.2336 27.7 93.2336 27.64C93.2336 27.56 93.2336 27.48 93.2336 27.4V26.92C93.2336 26 92.9436 25.25 92.3636 24.67C91.7836 24.07 90.9836 23.77 89.9636 23.77C88.6836 23.77 87.6636 24.16 86.9036 24.94C86.1436 25.7 85.5936 26.68 85.2536 27.88H93.2036ZM95.6936 32.2C95.1536 34.02 94.2436 35.35 92.9636 36.19C91.6836 37.01 90.1036 37.42 88.2236 37.42C87.2436 37.42 86.3336 37.27 85.4936 36.97C84.6736 36.65 83.9636 36.2 83.3636 35.62C82.7636 35.02 82.2936 34.31 81.9536 33.49C81.6136 32.65 81.4436 31.7 81.4436 30.64C81.4436 29.44 81.6336 28.27 82.0136 27.13C82.3936 25.99 82.9436 24.97 83.6636 24.07C84.4036 23.17 85.3036 22.45 86.3636 21.91C87.4436 21.35 88.6736 21.07 90.0536 21.07C91.4336 21.07 92.5536 21.3 93.4136 21.76C94.2736 22.22 94.9436 22.8 95.4236 23.5C95.9036 24.2 96.2236 24.97 96.3836 25.81C96.5636 26.65 96.6536 27.45 96.6536 28.21C96.6536 28.59 96.6336 28.94 96.5936 29.26C96.5536 29.58 96.5136 29.87 96.4736 30.13H84.9236C84.9036 30.23 84.8836 30.32 84.8636 30.4C84.8636 30.48 84.8636 30.56 84.8636 30.64V31.12C84.8636 32.2 85.1436 33.07 85.7036 33.73C86.2836 34.39 87.2336 34.72 88.5536 34.72C89.4736 34.72 90.2636 34.51 90.9236 34.09C91.5836 33.67 92.0336 33.04 92.2736 32.2H95.6936ZM100.663 21.49H103.903L103.273 24.52L103.333 24.58C103.573 24.16 103.863 23.74 104.203 23.32C104.563 22.9 104.953 22.53 105.373 22.21C105.793 21.87 106.243 21.6 106.723 21.4C107.223 21.18 107.743 21.07 108.283 21.07C108.563 21.07 108.833 21.08 109.093 21.1C109.373 21.1 109.653 21.12 109.933 21.16L109.213 24.43C109.013 24.39 108.813 24.36 108.613 24.34C108.413 24.32 108.213 24.31 108.013 24.31C107.133 24.31 106.363 24.47 105.703 24.79C105.063 25.09 104.513 25.51 104.053 26.05C103.613 26.59 103.253 27.21 102.973 27.91C102.693 28.61 102.473 29.35 102.313 30.13L100.873 37H97.4535L100.663 21.49ZM119.537 26.02C119.517 25.24 119.217 24.67 118.637 24.31C118.077 23.95 117.337 23.77 116.417 23.77C116.077 23.77 115.747 23.8 115.427 23.86C115.127 23.92 114.847 24.03 114.587 24.19C114.347 24.33 114.147 24.53 113.987 24.79C113.847 25.03 113.777 25.34 113.777 25.72C113.777 26.08 113.907 26.37 114.167 26.59C114.447 26.81 114.807 27.01 115.247 27.19C115.687 27.35 116.177 27.51 116.717 27.67C117.257 27.81 117.797 27.98 118.337 28.18C118.797 28.36 119.247 28.56 119.687 28.78C120.127 29 120.507 29.27 120.827 29.59C121.167 29.91 121.437 30.29 121.637 30.73C121.837 31.17 121.937 31.7 121.937 32.32C121.937 33.22 121.737 33.99 121.337 34.63C120.937 35.27 120.417 35.8 119.777 36.22C119.137 36.64 118.397 36.94 117.557 37.12C116.737 37.32 115.907 37.42 115.067 37.42C114.167 37.42 113.327 37.33 112.547 37.15C111.767 36.99 111.087 36.71 110.507 36.31C109.927 35.89 109.467 35.34 109.127 34.66C108.787 33.96 108.607 33.08 108.587 32.02H111.827C111.787 33 112.097 33.7 112.757 34.12C113.417 34.52 114.247 34.72 115.247 34.72C115.607 34.72 115.977 34.69 116.357 34.63C116.737 34.55 117.087 34.43 117.407 34.27C117.727 34.11 117.987 33.89 118.187 33.61C118.407 33.31 118.517 32.94 118.517 32.5C118.517 32.1 118.367 31.77 118.067 31.51C117.787 31.25 117.417 31.03 116.957 30.85C116.517 30.65 116.007 30.47 115.427 30.31C114.867 30.15 114.317 29.97 113.777 29.77C113.317 29.61 112.877 29.42 112.457 29.2C112.057 28.98 111.697 28.72 111.377 28.42C111.057 28.1 110.807 27.73 110.627 27.31C110.447 26.89 110.357 26.39 110.357 25.81C110.357 24.97 110.537 24.25 110.897 23.65C111.277 23.05 111.767 22.56 112.367 22.18C112.967 21.8 113.647 21.52 114.407 21.34C115.167 21.16 115.947 21.07 116.747 21.07C117.587 21.07 118.377 21.15 119.117 21.31C119.857 21.45 120.497 21.71 121.037 22.09C121.597 22.47 122.027 22.98 122.327 23.62C122.647 24.26 122.797 25.06 122.777 26.02H119.537ZM132.917 23.77C132.037 23.77 131.267 23.99 130.607 24.43C129.967 24.87 129.427 25.43 128.987 26.11C128.547 26.77 128.217 27.51 127.997 28.33C127.797 29.15 127.697 29.95 127.697 30.73C127.697 31.87 127.977 32.82 128.537 33.58C129.117 34.34 130.027 34.72 131.267 34.72C132.147 34.72 132.907 34.51 133.547 34.09C134.207 33.65 134.757 33.1 135.197 32.44C135.637 31.76 135.957 31.01 136.157 30.19C136.377 29.35 136.487 28.54 136.487 27.76C136.487 26.62 136.197 25.67 135.617 24.91C135.057 24.15 134.157 23.77 132.917 23.77ZM131.057 37.42C128.897 37.42 127.227 36.84 126.047 35.68C124.867 34.5 124.277 32.82 124.277 30.64C124.277 29.36 124.487 28.15 124.907 27.01C125.327 25.85 125.917 24.83 126.677 23.95C127.457 23.07 128.387 22.37 129.467 21.85C130.567 21.33 131.787 21.07 133.127 21.07C135.287 21.07 136.957 21.64 138.137 22.78C139.317 23.9 139.907 25.55 139.907 27.73C139.907 29.09 139.707 30.36 139.307 31.54C138.907 32.72 138.317 33.75 137.537 34.63C136.777 35.49 135.847 36.17 134.747 36.67C133.667 37.17 132.437 37.42 131.057 37.42ZM144.55 21.49H147.76L147.28 23.74L147.34 23.8C147.96 22.94 148.73 22.27 149.65 21.79C150.59 21.31 151.6 21.07 152.68 21.07C154.24 21.07 155.38 21.44 156.1 22.18C156.84 22.92 157.21 23.92 157.21 25.18C157.21 25.46 157.2 25.78 157.18 26.14C157.16 26.5 157.12 26.82 157.06 27.1L154.99 37H151.57L153.55 27.43C153.61 27.17 153.66 26.92 153.7 26.68C153.76 26.44 153.79 26.21 153.79 25.99C153.79 25.87 153.78 25.69 153.76 25.45C153.76 25.19 153.69 24.94 153.55 24.7C153.41 24.44 153.17 24.22 152.83 24.04C152.51 23.86 152.04 23.77 151.42 23.77C150.74 23.77 150.13 23.92 149.59 24.22C149.07 24.5 148.6 24.85 148.18 25.27C147.78 25.67 147.43 26.17 147.13 26.77C146.85 27.35 146.64 27.96 146.5 28.6L144.76 37H141.34L144.55 21.49ZM162.077 32.74C162.077 33.12 162.157 33.44 162.317 33.7C162.497 33.94 162.717 34.14 162.977 34.3C163.237 34.44 163.527 34.55 163.847 34.63C164.167 34.69 164.487 34.72 164.807 34.72C165.647 34.72 166.347 34.58 166.907 34.3C167.487 34.02 167.957 33.64 168.317 33.16C168.697 32.68 168.987 32.12 169.187 31.48C169.407 30.82 169.577 30.12 169.697 29.38L169.637 29.32C169.397 29.56 169.077 29.73 168.677 29.83C168.277 29.93 167.887 30 167.507 30.04C167.027 30.08 166.467 30.12 165.827 30.16C165.207 30.2 164.617 30.31 164.057 30.49C163.517 30.65 163.047 30.91 162.647 31.27C162.267 31.61 162.077 32.1 162.077 32.74ZM172.367 32.5C172.307 32.78 172.237 33.05 172.157 33.31C172.097 33.57 172.067 33.81 172.067 34.03C172.067 34.25 172.117 34.42 172.217 34.54C172.317 34.66 172.507 34.72 172.787 34.72C172.987 34.72 173.187 34.7 173.387 34.66C173.587 34.6 173.787 34.56 173.987 34.54L173.447 37C173.007 37.1 172.567 37.19 172.127 37.27C171.687 37.37 171.237 37.42 170.777 37.42C170.197 37.42 169.717 37.24 169.337 36.88C168.957 36.52 168.747 36.04 168.707 35.44C168.027 36.12 167.227 36.62 166.307 36.94C165.387 37.26 164.447 37.42 163.487 37.42C162.847 37.42 162.237 37.33 161.657 37.15C161.077 36.97 160.557 36.71 160.097 36.37C159.657 36.03 159.307 35.6 159.047 35.08C158.787 34.56 158.657 33.96 158.657 33.28C158.657 32.32 158.837 31.52 159.197 30.88C159.557 30.22 160.037 29.68 160.637 29.26C161.237 28.84 161.927 28.53 162.707 28.33C163.487 28.13 164.307 28 165.167 27.94C166.327 27.86 167.467 27.77 168.587 27.67C169.207 27.63 169.657 27.43 169.937 27.07C170.237 26.69 170.387 26.21 170.387 25.63C170.387 24.89 170.127 24.4 169.607 24.16C169.087 23.9 168.477 23.77 167.777 23.77C166.817 23.77 165.987 23.94 165.287 24.28C164.607 24.6 164.147 25.24 163.907 26.2H160.667C160.847 25.24 161.157 24.44 161.597 23.8C162.037 23.14 162.577 22.61 163.217 22.21C163.857 21.79 164.577 21.5 165.377 21.34C166.197 21.16 167.067 21.07 167.987 21.07C169.387 21.07 170.477 21.21 171.257 21.49C172.057 21.75 172.637 22.07 172.997 22.45C173.377 22.83 173.607 23.23 173.687 23.65C173.767 24.05 173.807 24.39 173.807 24.67C173.807 25.35 173.707 26.13 173.507 27.01L172.367 32.5ZM179.677 15.58H183.097L178.657 37H175.237L179.677 15.58ZM186.913 15.58H190.303L189.643 18.82H186.253L186.913 15.58ZM185.683 21.49H189.103L185.893 37H182.473L185.683 21.49ZM200.689 26.02C200.669 25.24 200.369 24.67 199.789 24.31C199.229 23.95 198.489 23.77 197.569 23.77C197.229 23.77 196.899 23.8 196.579 23.86C196.279 23.92 195.999 24.03 195.739 24.19C195.499 24.33 195.299 24.53 195.139 24.79C194.999 25.03 194.929 25.34 194.929 25.72C194.929 26.08 195.059 26.37 195.319 26.59C195.599 26.81 195.959 27.01 196.399 27.19C196.839 27.35 197.329 27.51 197.869 27.67C198.409 27.81 198.949 27.98 199.489 28.18C199.949 28.36 200.399 28.56 200.839 28.78C201.279 29 201.659 29.27 201.979 29.59C202.319 29.91 202.589 30.29 202.789 30.73C202.989 31.17 203.089 31.7 203.089 32.32C203.089 33.22 202.889 33.99 202.489 34.63C202.089 35.27 201.569 35.8 200.929 36.22C200.289 36.64 199.549 36.94 198.709 37.12C197.889 37.32 197.059 37.42 196.219 37.42C195.319 37.42 194.479 37.33 193.699 37.15C192.919 36.99 192.239 36.71 191.659 36.31C191.079 35.89 190.619 35.34 190.279 34.66C189.939 33.96 189.759 33.08 189.739 32.02H192.979C192.939 33 193.249 33.7 193.909 34.12C194.569 34.52 195.399 34.72 196.399 34.72C196.759 34.72 197.129 34.69 197.509 34.63C197.889 34.55 198.239 34.43 198.559 34.27C198.879 34.11 199.139 33.89 199.339 33.61C199.559 33.31 199.669 32.94 199.669 32.5C199.669 32.1 199.519 31.77 199.219 31.51C198.939 31.25 198.569 31.03 198.109 30.85C197.669 30.65 197.159 30.47 196.579 30.31C196.019 30.15 195.469 29.97 194.929 29.77C194.469 29.61 194.029 29.42 193.609 29.2C193.209 28.98 192.849 28.72 192.529 28.42C192.209 28.1 191.959 27.73 191.779 27.31C191.599 26.89 191.509 26.39 191.509 25.81C191.509 24.97 191.689 24.25 192.049 23.65C192.429 23.05 192.919 22.56 193.519 22.18C194.119 21.8 194.799 21.52 195.559 21.34C196.319 21.16 197.099 21.07 197.899 21.07C198.739 21.07 199.529 21.15 200.269 21.31C201.009 21.45 201.649 21.71 202.189 22.09C202.749 22.47 203.179 22.98 203.479 23.62C203.799 24.26 203.949 25.06 203.929 26.02H200.689ZM217.129 27.88C217.149 27.78 217.159 27.7 217.159 27.64C217.159 27.56 217.159 27.48 217.159 27.4V26.92C217.159 26 216.869 25.25 216.289 24.67C215.709 24.07 214.909 23.77 213.889 23.77C212.609 23.77 211.589 24.16 210.829 24.94C210.069 25.7 209.519 26.68 209.179 27.88H217.129ZM219.619 32.2C219.079 34.02 218.169 35.35 216.889 36.19C215.609 37.01 214.029 37.42 212.149 37.42C211.169 37.42 210.259 37.27 209.419 36.97C208.599 36.65 207.889 36.2 207.289 35.62C206.689 35.02 206.219 34.31 205.879 33.49C205.539 32.65 205.369 31.7 205.369 30.64C205.369 29.44 205.559 28.27 205.939 27.13C206.319 25.99 206.869 24.97 207.589 24.07C208.329 23.17 209.229 22.45 210.289 21.91C211.369 21.35 212.599 21.07 213.979 21.07C215.359 21.07 216.479 21.3 217.339 21.76C218.199 22.22 218.869 22.8 219.349 23.5C219.829 24.2 220.149 24.97 220.309 25.81C220.489 26.65 220.579 27.45 220.579 28.21C220.579 28.59 220.559 28.94 220.519 29.26C220.479 29.58 220.439 29.87 220.399 30.13H208.849C208.829 30.23 208.809 30.32 208.789 30.4C208.789 30.48 208.789 30.56 208.789 30.64V31.12C208.789 32.2 209.069 33.07 209.629 33.73C210.209 34.39 211.159 34.72 212.479 34.72C213.399 34.72 214.189 34.51 214.849 34.09C215.509 33.67 215.959 33.04 216.199 32.2H219.619ZM235.779 37H232.509L232.989 34.9L232.929 34.84C232.249 35.84 231.499 36.52 230.679 36.88C229.859 37.24 228.989 37.42 228.069 37.42C227.629 37.42 227.069 37.36 226.389 37.24C225.709 37.12 225.039 36.85 224.379 36.43C223.739 35.99 223.189 35.35 222.729 34.51C222.269 33.67 222.039 32.52 222.039 31.06C222.039 29.8 222.229 28.58 222.609 27.4C222.989 26.2 223.539 25.13 224.259 24.19C224.979 23.25 225.859 22.5 226.899 21.94C227.939 21.36 229.129 21.07 230.469 21.07C231.509 21.07 232.449 21.26 233.289 21.64C234.129 22.02 234.749 22.68 235.149 23.62H235.209L236.919 15.58H240.339L235.779 37ZM234.309 27.49C234.309 26.99 234.239 26.51 234.099 26.05C233.979 25.59 233.779 25.2 233.499 24.88C233.239 24.54 232.889 24.27 232.449 24.07C232.009 23.87 231.489 23.77 230.889 23.77C229.929 23.77 229.109 23.99 228.429 24.43C227.749 24.85 227.189 25.41 226.749 26.11C226.309 26.81 225.979 27.6 225.759 28.48C225.559 29.34 225.459 30.2 225.459 31.06C225.459 32.22 225.749 33.12 226.329 33.76C226.909 34.4 227.799 34.72 228.999 34.72C229.879 34.72 230.649 34.49 231.309 34.03C231.969 33.57 232.519 32.99 232.959 32.29C233.419 31.57 233.759 30.79 233.979 29.95C234.199 29.09 234.309 28.27 234.309 27.49ZM240.979 32.95H245.179C244.939 33.83 244.739 34.75 244.579 35.71C244.419 36.67 244.169 37.56 243.829 38.38C243.489 39.2 242.999 39.89 242.359 40.45C241.719 41.01 240.809 41.32 239.629 41.38L239.959 39.64C240.719 39.54 241.269 39.25 241.609 38.77C241.969 38.29 242.219 37.7 242.359 37H240.079L240.979 32.95ZM254.699 25.33H260.189C261.809 25.33 263.039 25 263.879 24.34C264.739 23.66 265.169 22.69 265.169 21.43C265.169 20.85 265.059 20.38 264.839 20.02C264.639 19.64 264.359 19.35 263.999 19.15C263.639 18.95 263.229 18.82 262.769 18.76C262.309 18.68 261.829 18.64 261.329 18.64H256.079L254.699 25.33ZM252.899 15.58H262.169C262.629 15.58 263.239 15.62 263.999 15.7C264.759 15.78 265.499 16 266.219 16.36C266.959 16.72 267.589 17.27 268.109 18.01C268.649 18.73 268.919 19.74 268.919 21.04C268.919 22.74 268.489 24.07 267.629 25.03C266.769 25.97 265.579 26.58 264.059 26.86V26.92C264.959 27.26 265.559 27.77 265.859 28.45C266.179 29.11 266.339 29.89 266.339 30.79C266.339 31.53 266.279 32.27 266.159 33.01C266.039 33.75 265.989 34.49 266.009 35.23C266.009 35.53 266.029 35.83 266.069 36.13C266.129 36.43 266.239 36.72 266.399 37H262.469C262.369 36.72 262.299 36.45 262.259 36.19C262.239 35.93 262.229 35.65 262.229 35.35C262.229 34.55 262.289 33.77 262.409 33.01C262.529 32.23 262.589 31.45 262.589 30.67C262.589 30.05 262.469 29.57 262.229 29.23C262.009 28.89 261.709 28.65 261.329 28.51C260.949 28.35 260.519 28.26 260.039 28.24C259.559 28.2 259.069 28.18 258.569 28.18H254.099L252.269 37H248.459L252.899 15.58ZM278.552 23.77C277.672 23.77 276.902 23.99 276.242 24.43C275.602 24.87 275.062 25.43 274.622 26.11C274.182 26.77 273.852 27.51 273.632 28.33C273.432 29.15 273.332 29.95 273.332 30.73C273.332 31.87 273.612 32.82 274.172 33.58C274.752 34.34 275.662 34.72 276.902 34.72C277.782 34.72 278.542 34.51 279.182 34.09C279.842 33.65 280.392 33.1 280.832 32.44C281.272 31.76 281.592 31.01 281.792 30.19C282.012 29.35 282.122 28.54 282.122 27.76C282.122 26.62 281.832 25.67 281.252 24.91C280.692 24.15 279.792 23.77 278.552 23.77ZM276.692 37.42C274.532 37.42 272.862 36.84 271.682 35.68C270.502 34.5 269.912 32.82 269.912 30.64C269.912 29.36 270.122 28.15 270.542 27.01C270.962 25.85 271.552 24.83 272.312 23.95C273.092 23.07 274.022 22.37 275.102 21.85C276.202 21.33 277.422 21.07 278.762 21.07C280.922 21.07 282.592 21.64 283.772 22.78C284.952 23.9 285.542 25.55 285.542 27.73C285.542 29.09 285.342 30.36 284.942 31.54C284.542 32.72 283.952 33.75 283.172 34.63C282.412 35.49 281.482 36.17 280.382 36.67C279.302 37.17 278.072 37.42 276.692 37.42ZM296.335 23.77C295.455 23.77 294.685 23.99 294.025 24.43C293.385 24.87 292.845 25.43 292.405 26.11C291.965 26.77 291.635 27.51 291.415 28.33C291.215 29.15 291.115 29.95 291.115 30.73C291.115 31.87 291.395 32.82 291.955 33.58C292.535 34.34 293.445 34.72 294.685 34.72C295.565 34.72 296.325 34.51 296.965 34.09C297.625 33.65 298.175 33.1 298.615 32.44C299.055 31.76 299.375 31.01 299.575 30.19C299.795 29.35 299.905 28.54 299.905 27.76C299.905 26.62 299.615 25.67 299.035 24.91C298.475 24.15 297.575 23.77 296.335 23.77ZM294.475 37.42C292.315 37.42 290.645 36.84 289.465 35.68C288.285 34.5 287.695 32.82 287.695 30.64C287.695 29.36 287.905 28.15 288.325 27.01C288.745 25.85 289.335 24.83 290.095 23.95C290.875 23.07 291.805 22.37 292.885 21.85C293.985 21.33 295.205 21.07 296.545 21.07C298.705 21.07 300.375 21.64 301.555 22.78C302.735 23.9 303.325 25.55 303.325 27.73C303.325 29.09 303.125 30.36 302.725 31.54C302.325 32.72 301.735 33.75 300.955 34.63C300.195 35.49 299.265 36.17 298.165 36.67C297.085 37.17 295.855 37.42 294.475 37.42ZM309.888 16.84H313.218L312.258 21.49H315.348L314.808 24.04H311.718L310.128 31.63C310.048 31.97 309.978 32.29 309.918 32.59C309.858 32.89 309.828 33.13 309.828 33.31C309.828 33.65 309.898 33.93 310.038 34.15C310.198 34.35 310.538 34.45 311.058 34.45C311.318 34.45 311.598 34.45 311.898 34.45C312.218 34.43 312.548 34.38 312.888 34.3L312.318 36.82C311.878 36.92 311.408 37 310.908 37.06C310.408 37.12 309.938 37.15 309.498 37.15C308.878 37.15 308.368 37.07 307.968 36.91C307.568 36.75 307.248 36.54 307.008 36.28C306.788 36 306.628 35.69 306.528 35.35C306.448 34.99 306.408 34.63 306.408 34.27C306.408 33.97 306.428 33.64 306.468 33.28C306.528 32.92 306.578 32.67 306.618 32.53L308.388 24.04H305.688L306.228 21.49H308.928L309.888 16.84ZM316.368 27.22H325.248L324.618 30.46H315.738L316.368 27.22ZM343.899 22.72C343.899 21.22 343.479 20.08 342.639 19.3C341.819 18.52 340.629 18.13 339.069 18.13C337.789 18.13 336.669 18.42 335.709 19C334.769 19.58 333.979 20.34 333.339 21.28C332.719 22.22 332.249 23.28 331.929 24.46C331.609 25.64 331.449 26.83 331.449 28.03C331.449 30.03 331.959 31.6 332.979 32.74C333.999 33.88 335.449 34.45 337.329 34.45C338.289 34.45 339.099 34.27 339.759 33.91C340.419 33.53 340.959 33.08 341.379 32.56C341.819 32.02 342.149 31.47 342.369 30.91C342.609 30.35 342.779 29.89 342.879 29.53H346.629C346.329 30.89 345.879 32.07 345.279 33.07C344.679 34.07 343.959 34.9 343.119 35.56C342.299 36.22 341.379 36.71 340.359 37.03C339.359 37.35 338.309 37.51 337.209 37.51C335.669 37.51 334.309 37.27 333.129 36.79C331.949 36.31 330.959 35.65 330.159 34.81C329.359 33.97 328.749 32.98 328.329 31.84C327.909 30.7 327.699 29.47 327.699 28.15C327.699 25.91 328.029 23.97 328.689 22.33C329.369 20.67 330.249 19.31 331.329 18.25C332.429 17.17 333.659 16.37 335.019 15.85C336.399 15.33 337.789 15.07 339.189 15.07C340.449 15.07 341.609 15.24 342.669 15.58C343.729 15.92 344.629 16.41 345.369 17.05C346.129 17.69 346.709 18.49 347.109 19.45C347.509 20.41 347.689 21.5 347.649 22.72H343.899ZM351.569 32.74C351.569 33.12 351.649 33.44 351.809 33.7C351.989 33.94 352.209 34.14 352.469 34.3C352.729 34.44 353.019 34.55 353.339 34.63C353.659 34.69 353.979 34.72 354.299 34.72C355.139 34.72 355.839 34.58 356.399 34.3C356.979 34.02 357.449 33.64 357.809 33.16C358.189 32.68 358.479 32.12 358.679 31.48C358.899 30.82 359.069 30.12 359.189 29.38L359.129 29.32C358.889 29.56 358.569 29.73 358.169 29.83C357.769 29.93 357.379 30 356.999 30.04C356.519 30.08 355.959 30.12 355.319 30.16C354.699 30.2 354.109 30.31 353.549 30.49C353.009 30.65 352.539 30.91 352.139 31.27C351.759 31.61 351.569 32.1 351.569 32.74ZM361.859 32.5C361.799 32.78 361.729 33.05 361.649 33.31C361.589 33.57 361.559 33.81 361.559 34.03C361.559 34.25 361.609 34.42 361.709 34.54C361.809 34.66 361.999 34.72 362.279 34.72C362.479 34.72 362.679 34.7 362.879 34.66C363.079 34.6 363.279 34.56 363.479 34.54L362.939 37C362.499 37.1 362.059 37.19 361.619 37.27C361.179 37.37 360.729 37.42 360.269 37.42C359.689 37.42 359.209 37.24 358.829 36.88C358.449 36.52 358.239 36.04 358.199 35.44C357.519 36.12 356.719 36.62 355.799 36.94C354.879 37.26 353.939 37.42 352.979 37.42C352.339 37.42 351.729 37.33 351.149 37.15C350.569 36.97 350.049 36.71 349.589 36.37C349.149 36.03 348.799 35.6 348.539 35.08C348.279 34.56 348.149 33.96 348.149 33.28C348.149 32.32 348.329 31.52 348.689 30.88C349.049 30.22 349.529 29.68 350.129 29.26C350.729 28.84 351.419 28.53 352.199 28.33C352.979 28.13 353.799 28 354.659 27.94C355.819 27.86 356.959 27.77 358.079 27.67C358.699 27.63 359.149 27.43 359.429 27.07C359.729 26.69 359.879 26.21 359.879 25.63C359.879 24.89 359.619 24.4 359.099 24.16C358.579 23.9 357.969 23.77 357.269 23.77C356.309 23.77 355.479 23.94 354.779 24.28C354.099 24.6 353.639 25.24 353.399 26.2H350.159C350.339 25.24 350.649 24.44 351.089 23.8C351.529 23.14 352.069 22.61 352.709 22.21C353.349 21.79 354.069 21.5 354.869 21.34C355.689 21.16 356.559 21.07 357.479 21.07C358.879 21.07 359.969 21.21 360.749 21.49C361.549 21.75 362.129 22.07 362.489 22.45C362.869 22.83 363.099 23.23 363.179 23.65C363.259 24.05 363.299 24.39 363.299 24.67C363.299 25.35 363.199 26.13 362.999 27.01L361.859 32.5ZM378.259 37H375.049L375.529 34.75L375.469 34.69C374.849 35.55 374.069 36.22 373.129 36.7C372.209 37.18 371.209 37.42 370.129 37.42C368.569 37.42 367.419 37.05 366.679 36.31C365.959 35.57 365.599 34.57 365.599 33.31C365.599 33.03 365.609 32.71 365.629 32.35C365.649 31.99 365.689 31.67 365.749 31.39L367.819 21.49H371.239L369.259 31.06C369.199 31.32 369.139 31.57 369.079 31.81C369.039 32.05 369.019 32.28 369.019 32.5C369.019 32.62 369.019 32.81 369.019 33.07C369.039 33.31 369.119 33.56 369.259 33.82C369.399 34.06 369.629 34.27 369.949 34.45C370.269 34.63 370.749 34.72 371.389 34.72C372.049 34.72 372.649 34.58 373.189 34.3C373.749 34 374.239 33.62 374.659 33.16C375.079 32.7 375.429 32.19 375.709 31.63C375.989 31.05 376.189 30.47 376.309 29.89L378.049 21.49H381.469L378.259 37ZM392.935 26.02C392.915 25.24 392.615 24.67 392.035 24.31C391.475 23.95 390.735 23.77 389.815 23.77C389.475 23.77 389.145 23.8 388.825 23.86C388.525 23.92 388.245 24.03 387.985 24.19C387.745 24.33 387.545 24.53 387.385 24.79C387.245 25.03 387.175 25.34 387.175 25.72C387.175 26.08 387.305 26.37 387.565 26.59C387.845 26.81 388.205 27.01 388.645 27.19C389.085 27.35 389.575 27.51 390.115 27.67C390.655 27.81 391.195 27.98 391.735 28.18C392.195 28.36 392.645 28.56 393.085 28.78C393.525 29 393.905 29.27 394.225 29.59C394.565 29.91 394.835 30.29 395.035 30.73C395.235 31.17 395.335 31.7 395.335 32.32C395.335 33.22 395.135 33.99 394.735 34.63C394.335 35.27 393.815 35.8 393.175 36.22C392.535 36.64 391.795 36.94 390.955 37.12C390.135 37.32 389.305 37.42 388.465 37.42C387.565 37.42 386.725 37.33 385.945 37.15C385.165 36.99 384.485 36.71 383.905 36.31C383.325 35.89 382.865 35.34 382.525 34.66C382.185 33.96 382.005 33.08 381.985 32.02H385.225C385.185 33 385.495 33.7 386.155 34.12C386.815 34.52 387.645 34.72 388.645 34.72C389.005 34.72 389.375 34.69 389.755 34.63C390.135 34.55 390.485 34.43 390.805 34.27C391.125 34.11 391.385 33.89 391.585 33.61C391.805 33.31 391.915 32.94 391.915 32.5C391.915 32.1 391.765 31.77 391.465 31.51C391.185 31.25 390.815 31.03 390.355 30.85C389.915 30.65 389.405 30.47 388.825 30.31C388.265 30.15 387.715 29.97 387.175 29.77C386.715 29.61 386.275 29.42 385.855 29.2C385.455 28.98 385.095 28.72 384.775 28.42C384.455 28.1 384.205 27.73 384.025 27.31C383.845 26.89 383.755 26.39 383.755 25.81C383.755 24.97 383.935 24.25 384.295 23.65C384.675 23.05 385.165 22.56 385.765 22.18C386.365 21.8 387.045 21.52 387.805 21.34C388.565 21.16 389.345 21.07 390.145 21.07C390.985 21.07 391.775 21.15 392.515 21.31C393.255 21.45 393.895 21.71 394.435 22.09C394.995 22.47 395.425 22.98 395.725 23.62C396.045 24.26 396.195 25.06 396.175 26.02H392.935ZM409.375 27.88C409.395 27.78 409.405 27.7 409.405 27.64C409.405 27.56 409.405 27.48 409.405 27.4V26.92C409.405 26 409.115 25.25 408.535 24.67C407.955 24.07 407.155 23.77 406.135 23.77C404.855 23.77 403.835 24.16 403.075 24.94C402.315 25.7 401.765 26.68 401.425 27.88H409.375ZM411.865 32.2C411.325 34.02 410.415 35.35 409.135 36.19C407.855 37.01 406.275 37.42 404.395 37.42C403.415 37.42 402.505 37.27 401.665 36.97C400.845 36.65 400.135 36.2 399.535 35.62C398.935 35.02 398.465 34.31 398.125 33.49C397.785 32.65 397.615 31.7 397.615 30.64C397.615 29.44 397.805 28.27 398.185 27.13C398.565 25.99 399.115 24.97 399.835 24.07C400.575 23.17 401.475 22.45 402.535 21.91C403.615 21.35 404.845 21.07 406.225 21.07C407.605 21.07 408.725 21.3 409.585 21.76C410.445 22.22 411.115 22.8 411.595 23.5C412.075 24.2 412.395 24.97 412.555 25.81C412.735 26.65 412.825 27.45 412.825 28.21C412.825 28.59 412.805 28.94 412.765 29.26C412.725 29.58 412.685 29.87 412.645 30.13H401.095C401.075 30.23 401.055 30.32 401.035 30.4C401.035 30.48 401.035 30.56 401.035 30.64V31.12C401.035 32.2 401.315 33.07 401.875 33.73C402.455 34.39 403.405 34.72 404.725 34.72C405.645 34.72 406.435 34.51 407.095 34.09C407.755 33.67 408.205 33.04 408.445 32.2H411.865ZM439.465 22.72C439.465 21.22 439.045 20.08 438.205 19.3C437.385 18.52 436.195 18.13 434.635 18.13C433.355 18.13 432.235 18.42 431.275 19C430.335 19.58 429.545 20.34 428.905 21.28C428.285 22.22 427.815 23.28 427.495 24.46C427.175 25.64 427.015 26.83 427.015 28.03C427.015 30.03 427.525 31.6 428.545 32.74C429.565 33.88 431.015 34.45 432.895 34.45C433.855 34.45 434.665 34.27 435.325 33.91C435.985 33.53 436.525 33.08 436.945 32.56C437.385 32.02 437.715 31.47 437.935 30.91C438.175 30.35 438.345 29.89 438.445 29.53H442.195C441.895 30.89 441.445 32.07 440.845 33.07C440.245 34.07 439.525 34.9 438.685 35.56C437.865 36.22 436.945 36.71 435.925 37.03C434.925 37.35 433.875 37.51 432.775 37.51C431.235 37.51 429.875 37.27 428.695 36.79C427.515 36.31 426.525 35.65 425.725 34.81C424.925 33.97 424.315 32.98 423.895 31.84C423.475 30.7 423.265 29.47 423.265 28.15C423.265 25.91 423.595 23.97 424.255 22.33C424.935 20.67 425.815 19.31 426.895 18.25C427.995 17.17 429.225 16.37 430.585 15.85C431.965 15.33 433.355 15.07 434.755 15.07C436.015 15.07 437.175 15.24 438.235 15.58C439.295 15.92 440.195 16.41 440.935 17.05C441.695 17.69 442.275 18.49 442.675 19.45C443.075 20.41 443.255 21.5 443.215 22.72H439.465ZM447.135 32.74C447.135 33.12 447.215 33.44 447.375 33.7C447.555 33.94 447.775 34.14 448.035 34.3C448.295 34.44 448.585 34.55 448.905 34.63C449.225 34.69 449.545 34.72 449.865 34.72C450.705 34.72 451.405 34.58 451.965 34.3C452.545 34.02 453.015 33.64 453.375 33.16C453.755 32.68 454.045 32.12 454.245 31.48C454.465 30.82 454.635 30.12 454.755 29.38L454.695 29.32C454.455 29.56 454.135 29.73 453.735 29.83C453.335 29.93 452.945 30 452.565 30.04C452.085 30.08 451.525 30.12 450.885 30.16C450.265 30.2 449.675 30.31 449.115 30.49C448.575 30.65 448.105 30.91 447.705 31.27C447.325 31.61 447.135 32.1 447.135 32.74ZM457.425 32.5C457.365 32.78 457.295 33.05 457.215 33.31C457.155 33.57 457.125 33.81 457.125 34.03C457.125 34.25 457.175 34.42 457.275 34.54C457.375 34.66 457.565 34.72 457.845 34.72C458.045 34.72 458.245 34.7 458.445 34.66C458.645 34.6 458.845 34.56 459.045 34.54L458.505 37C458.065 37.1 457.625 37.19 457.185 37.27C456.745 37.37 456.295 37.42 455.835 37.42C455.255 37.42 454.775 37.24 454.395 36.88C454.015 36.52 453.805 36.04 453.765 35.44C453.085 36.12 452.285 36.62 451.365 36.94C450.445 37.26 449.505 37.42 448.545 37.42C447.905 37.42 447.295 37.33 446.715 37.15C446.135 36.97 445.615 36.71 445.155 36.37C444.715 36.03 444.365 35.6 444.105 35.08C443.845 34.56 443.715 33.96 443.715 33.28C443.715 32.32 443.895 31.52 444.255 30.88C444.615 30.22 445.095 29.68 445.695 29.26C446.295 28.84 446.985 28.53 447.765 28.33C448.545 28.13 449.365 28 450.225 27.94C451.385 27.86 452.525 27.77 453.645 27.67C454.265 27.63 454.715 27.43 454.995 27.07C455.295 26.69 455.445 26.21 455.445 25.63C455.445 24.89 455.185 24.4 454.665 24.16C454.145 23.9 453.535 23.77 452.835 23.77C451.875 23.77 451.045 23.94 450.345 24.28C449.665 24.6 449.205 25.24 448.965 26.2H445.725C445.905 25.24 446.215 24.44 446.655 23.8C447.095 23.14 447.635 22.61 448.275 22.21C448.915 21.79 449.635 21.5 450.435 21.34C451.255 21.16 452.125 21.07 453.045 21.07C454.445 21.07 455.535 21.21 456.315 21.49C457.115 21.75 457.695 22.07 458.055 22.45C458.435 22.83 458.665 23.23 458.745 23.65C458.825 24.05 458.865 24.39 458.865 24.67C458.865 25.35 458.765 26.13 458.565 27.01L457.425 32.5ZM463.505 21.49H466.745L466.115 24.52L466.175 24.58C466.415 24.16 466.705 23.74 467.045 23.32C467.405 22.9 467.795 22.53 468.215 22.21C468.635 21.87 469.085 21.6 469.565 21.4C470.065 21.18 470.585 21.07 471.125 21.07C471.405 21.07 471.675 21.08 471.935 21.1C472.215 21.1 472.495 21.12 472.775 21.16L472.055 24.43C471.855 24.39 471.655 24.36 471.455 24.34C471.255 24.32 471.055 24.31 470.855 24.31C469.975 24.31 469.205 24.47 468.545 24.79C467.905 25.09 467.355 25.51 466.895 26.05C466.455 26.59 466.095 27.21 465.815 27.91C465.535 28.61 465.315 29.35 465.155 30.13L463.715 37H460.295L463.505 21.49ZM483.819 27.88C483.839 27.78 483.849 27.7 483.849 27.64C483.849 27.56 483.849 27.48 483.849 27.4V26.92C483.849 26 483.559 25.25 482.979 24.67C482.399 24.07 481.599 23.77 480.579 23.77C479.299 23.77 478.279 24.16 477.519 24.94C476.759 25.7 476.209 26.68 475.869 27.88H483.819ZM486.309 32.2C485.769 34.02 484.859 35.35 483.579 36.19C482.299 37.01 480.719 37.42 478.839 37.42C477.859 37.42 476.949 37.27 476.109 36.97C475.289 36.65 474.579 36.2 473.979 35.62C473.379 35.02 472.909 34.31 472.569 33.49C472.229 32.65 472.059 31.7 472.059 30.64C472.059 29.44 472.249 28.27 472.629 27.13C473.009 25.99 473.559 24.97 474.279 24.07C475.019 23.17 475.919 22.45 476.979 21.91C478.059 21.35 479.289 21.07 480.669 21.07C482.049 21.07 483.169 21.3 484.029 21.76C484.889 22.22 485.559 22.8 486.039 23.5C486.519 24.2 486.839 24.97 486.999 25.81C487.179 26.65 487.269 27.45 487.269 28.21C487.269 28.59 487.249 28.94 487.209 29.26C487.169 29.58 487.129 29.87 487.089 30.13H475.539C475.519 30.23 475.499 30.32 475.479 30.4C475.479 30.48 475.479 30.56 475.479 30.64V31.12C475.479 32.2 475.759 33.07 476.319 33.73C476.899 34.39 477.849 34.72 479.169 34.72C480.089 34.72 480.879 34.51 481.539 34.09C482.199 33.67 482.649 33.04 482.889 32.2H486.309ZM500.078 24.04H497.528L498.038 21.49H500.588C500.768 20.59 500.958 19.78 501.158 19.06C501.358 18.34 501.648 17.72 502.028 17.2C502.408 16.68 502.918 16.28 503.558 16C504.198 15.72 505.038 15.58 506.078 15.58C506.538 15.58 506.978 15.61 507.398 15.67C507.818 15.71 508.228 15.75 508.628 15.79L508.058 18.4C507.718 18.32 507.278 18.28 506.738 18.28C506.158 18.28 505.708 18.36 505.388 18.52C505.088 18.68 504.848 18.91 504.668 19.21C504.508 19.49 504.388 19.83 504.308 20.23C504.228 20.61 504.128 21.03 504.008 21.49H507.008L506.498 24.04H503.498L500.798 37H497.378L500.078 24.04ZM509.091 21.49H512.331L511.701 24.52L511.761 24.58C512.001 24.16 512.291 23.74 512.631 23.32C512.991 22.9 513.381 22.53 513.801 22.21C514.221 21.87 514.671 21.6 515.151 21.4C515.651 21.18 516.171 21.07 516.711 21.07C516.991 21.07 517.261 21.08 517.521 21.1C517.801 21.1 518.081 21.12 518.361 21.16L517.641 24.43C517.441 24.39 517.241 24.36 517.041 24.34C516.841 24.32 516.641 24.31 516.441 24.31C515.561 24.31 514.791 24.47 514.131 24.79C513.491 25.09 512.941 25.51 512.481 26.05C512.041 26.59 511.681 27.21 511.401 27.91C511.121 28.61 510.901 29.35 510.741 30.13L509.301 37H505.881L509.091 21.49ZM526.345 23.77C525.465 23.77 524.695 23.99 524.035 24.43C523.395 24.87 522.855 25.43 522.415 26.11C521.975 26.77 521.645 27.51 521.425 28.33C521.225 29.15 521.125 29.95 521.125 30.73C521.125 31.87 521.405 32.82 521.965 33.58C522.545 34.34 523.455 34.72 524.695 34.72C525.575 34.72 526.335 34.51 526.975 34.09C527.635 33.65 528.185 33.1 528.625 32.44C529.065 31.76 529.385 31.01 529.585 30.19C529.805 29.35 529.915 28.54 529.915 27.76C529.915 26.62 529.625 25.67 529.045 24.91C528.485 24.15 527.585 23.77 526.345 23.77ZM524.485 37.42C522.325 37.42 520.655 36.84 519.475 35.68C518.295 34.5 517.705 32.82 517.705 30.64C517.705 29.36 517.915 28.15 518.335 27.01C518.755 25.85 519.345 24.83 520.105 23.95C520.885 23.07 521.815 22.37 522.895 21.85C523.995 21.33 525.215 21.07 526.555 21.07C528.715 21.07 530.385 21.64 531.565 22.78C532.745 23.9 533.335 25.55 533.335 27.73C533.335 29.09 533.135 30.36 532.735 31.54C532.335 32.72 531.745 33.75 530.965 34.63C530.205 35.49 529.275 36.17 528.175 36.67C527.095 37.17 525.865 37.42 524.485 37.42ZM538.158 21.49H541.398L540.948 23.68L541.008 23.74C541.648 22.9 542.418 22.25 543.318 21.79C544.238 21.31 545.238 21.07 546.318 21.07C547.278 21.07 548.118 21.28 548.838 21.7C549.558 22.1 550.028 22.81 550.248 23.83C550.948 23.03 551.728 22.37 552.588 21.85C553.448 21.33 554.418 21.07 555.498 21.07C556.998 21.07 558.108 21.44 558.828 22.18C559.548 22.92 559.908 23.92 559.908 25.18C559.908 25.46 559.878 25.78 559.818 26.14C559.778 26.5 559.728 26.82 559.668 27.1L557.688 37H554.268L556.188 27.82C556.228 27.64 556.278 27.39 556.338 27.07C556.418 26.73 556.468 26.37 556.488 25.99C556.488 25.73 556.458 25.47 556.398 25.21C556.358 24.93 556.258 24.69 556.098 24.49C555.938 24.27 555.718 24.1 555.438 23.98C555.158 23.84 554.798 23.77 554.358 23.77C553.698 23.77 553.108 23.91 552.588 24.19C552.088 24.45 551.648 24.79 551.268 25.21C550.908 25.61 550.608 26.06 550.368 26.56C550.148 27.04 549.998 27.5 549.918 27.94L548.028 37H544.608L546.378 28.48C546.458 28.08 546.548 27.63 546.648 27.13C546.768 26.63 546.828 26.15 546.828 25.69C546.828 25.17 546.688 24.72 546.408 24.34C546.148 23.96 545.658 23.77 544.938 23.77C544.278 23.77 543.708 23.89 543.228 24.13C542.768 24.37 542.368 24.66 542.028 25C541.688 25.34 541.338 25.78 540.978 26.32C540.618 26.84 540.368 27.41 540.228 28.03L538.368 37H534.948L538.158 21.49ZM574.728 15.58H578.478L574.008 37H570.258L574.728 15.58ZM581.337 21.49H584.547L584.067 23.74L584.127 23.8C584.747 22.94 585.517 22.27 586.437 21.79C587.377 21.31 588.387 21.07 589.467 21.07C591.027 21.07 592.167 21.44 592.887 22.18C593.627 22.92 593.997 23.92 593.997 25.18C593.997 25.46 593.987 25.78 593.967 26.14C593.947 26.5 593.907 26.82 593.847 27.1L591.777 37H588.357L590.337 27.43C590.397 27.17 590.447 26.92 590.487 26.68C590.547 26.44 590.577 26.21 590.577 25.99C590.577 25.87 590.567 25.69 590.547 25.45C590.547 25.19 590.477 24.94 590.337 24.7C590.197 24.44 589.957 24.22 589.617 24.04C589.297 23.86 588.827 23.77 588.207 23.77C587.527 23.77 586.917 23.92 586.377 24.22C585.857 24.5 585.387 24.85 584.967 25.27C584.567 25.67 584.217 26.17 583.917 26.77C583.637 27.35 583.427 27.96 583.287 28.6L581.547 37H578.127L581.337 21.49ZM606.334 26.02C606.314 25.24 606.014 24.67 605.434 24.31C604.874 23.95 604.134 23.77 603.214 23.77C602.874 23.77 602.544 23.8 602.224 23.86C601.924 23.92 601.644 24.03 601.384 24.19C601.144 24.33 600.944 24.53 600.784 24.79C600.644 25.03 600.574 25.34 600.574 25.72C600.574 26.08 600.704 26.37 600.964 26.59C601.244 26.81 601.604 27.01 602.044 27.19C602.484 27.35 602.974 27.51 603.514 27.67C604.054 27.81 604.594 27.98 605.134 28.18C605.594 28.36 606.044 28.56 606.484 28.78C606.924 29 607.304 29.27 607.624 29.59C607.964 29.91 608.234 30.29 608.434 30.73C608.634 31.17 608.734 31.7 608.734 32.32C608.734 33.22 608.534 33.99 608.134 34.63C607.734 35.27 607.214 35.8 606.574 36.22C605.934 36.64 605.194 36.94 604.354 37.12C603.534 37.32 602.704 37.42 601.864 37.42C600.964 37.42 600.124 37.33 599.344 37.15C598.564 36.99 597.884 36.71 597.304 36.31C596.724 35.89 596.264 35.34 595.924 34.66C595.584 33.96 595.404 33.08 595.384 32.02H598.624C598.584 33 598.894 33.7 599.554 34.12C600.214 34.52 601.044 34.72 602.044 34.72C602.404 34.72 602.774 34.69 603.154 34.63C603.534 34.55 603.884 34.43 604.204 34.27C604.524 34.11 604.784 33.89 604.984 33.61C605.204 33.31 605.314 32.94 605.314 32.5C605.314 32.1 605.164 31.77 604.864 31.51C604.584 31.25 604.214 31.03 603.754 30.85C603.314 30.65 602.804 30.47 602.224 30.31C601.664 30.15 601.114 29.97 600.574 29.77C600.114 29.61 599.674 29.42 599.254 29.2C598.854 28.98 598.494 28.72 598.174 28.42C597.854 28.1 597.604 27.73 597.424 27.31C597.244 26.89 597.154 26.39 597.154 25.81C597.154 24.97 597.334 24.25 597.694 23.65C598.074 23.05 598.564 22.56 599.164 22.18C599.764 21.8 600.444 21.52 601.204 21.34C601.964 21.16 602.744 21.07 603.544 21.07C604.384 21.07 605.174 21.15 605.914 21.31C606.654 21.45 607.294 21.71 607.834 22.09C608.394 22.47 608.824 22.98 609.124 23.62C609.444 24.26 609.594 25.06 609.574 26.02H606.334ZM614.794 15.58H618.184L617.524 18.82H614.134L614.794 15.58ZM613.564 21.49H616.984L613.774 37H610.354L613.564 21.49ZM621.94 30.46C621.94 30.98 622 31.48 622.12 31.96C622.24 32.42 622.43 32.83 622.69 33.19C622.95 33.53 623.28 33.8 623.68 34C624.1 34.2 624.6 34.3 625.18 34.3C626.1 34.3 626.88 34.09 627.52 33.67C628.18 33.25 628.72 32.71 629.14 32.05C629.56 31.39 629.86 30.65 630.04 29.83C630.24 29.01 630.34 28.21 630.34 27.43C630.34 26.29 630.05 25.4 629.47 24.76C628.89 24.1 628.03 23.77 626.89 23.77C626.05 23.77 625.32 23.99 624.7 24.43C624.08 24.85 623.56 25.39 623.14 26.05C622.74 26.71 622.44 27.44 622.24 28.24C622.04 29.02 621.94 29.76 621.94 30.46ZM631.81 36.58C631.55 37.76 631.22 38.77 630.82 39.61C630.44 40.45 629.94 41.13 629.32 41.65C628.72 42.17 627.98 42.55 627.1 42.79C626.24 43.03 625.2 43.15 623.98 43.15C623.1 43.15 622.26 43.06 621.46 42.88C620.68 42.7 619.98 42.41 619.36 42.01C618.76 41.63 618.28 41.12 617.92 40.48C617.54 39.86 617.34 39.1 617.32 38.2H620.74C620.78 39.08 621.13 39.7 621.79 40.06C622.47 40.42 623.3 40.6 624.28 40.6C625.04 40.6 625.67 40.49 626.17 40.27C626.67 40.05 627.08 39.75 627.4 39.37C627.74 38.99 628 38.53 628.18 37.99C628.36 37.47 628.52 36.89 628.66 36.25L628.99 34.72L628.93 34.66C627.85 36.22 626.39 37 624.55 37C622.61 37 621.12 36.44 620.08 35.32C619.04 34.18 618.52 32.62 618.52 30.64C618.52 29.48 618.69 28.33 619.03 27.19C619.39 26.03 619.9 25 620.56 24.1C621.24 23.2 622.08 22.47 623.08 21.91C624.08 21.35 625.23 21.07 626.53 21.07C627.67 21.07 628.65 21.3 629.47 21.76C630.29 22.22 630.91 22.99 631.33 24.07H631.39L631.84 21.49H635.08L631.81 36.58ZM639.813 15.58H643.233L641.553 23.68H641.613C642.193 22.9 642.943 22.27 643.863 21.79C644.783 21.31 645.733 21.07 646.713 21.07C648.273 21.07 649.413 21.44 650.133 22.18C650.873 22.92 651.243 23.92 651.243 25.18C651.243 25.46 651.233 25.78 651.213 26.14C651.193 26.5 651.153 26.82 651.093 27.1L649.023 37H645.603L647.583 27.43C647.643 27.17 647.693 26.92 647.733 26.68C647.793 26.44 647.823 26.21 647.823 25.99C647.823 25.87 647.813 25.69 647.793 25.45C647.793 25.19 647.723 24.94 647.583 24.7C647.443 24.44 647.203 24.22 646.863 24.04C646.543 23.86 646.073 23.77 645.453 23.77C644.773 23.77 644.163 23.92 643.623 24.22C643.103 24.5 642.633 24.85 642.213 25.27C641.813 25.67 641.463 26.17 641.163 26.77C640.883 27.35 640.673 27.96 640.533 28.6L638.793 37H635.373L639.813 15.58ZM657.73 16.84H661.06L660.1 21.49H663.19L662.65 24.04H659.56L657.97 31.63C657.89 31.97 657.82 32.29 657.76 32.59C657.7 32.89 657.67 33.13 657.67 33.31C657.67 33.65 657.74 33.93 657.88 34.15C658.04 34.35 658.38 34.45 658.9 34.45C659.16 34.45 659.44 34.45 659.74 34.45C660.06 34.43 660.39 34.38 660.73 34.3L660.16 36.82C659.72 36.92 659.25 37 658.75 37.06C658.25 37.12 657.78 37.15 657.34 37.15C656.72 37.15 656.21 37.07 655.81 36.91C655.41 36.75 655.09 36.54 654.85 36.28C654.63 36 654.47 35.69 654.37 35.35C654.29 34.99 654.25 34.63 654.25 34.27C654.25 33.97 654.27 33.64 654.31 33.28C654.37 32.92 654.42 32.67 654.46 32.53L656.23 24.04H653.53L654.07 21.49H656.77L657.73 16.84ZM673.57 26.02C673.55 25.24 673.25 24.67 672.67 24.31C672.11 23.95 671.37 23.77 670.45 23.77C670.11 23.77 669.78 23.8 669.46 23.86C669.16 23.92 668.88 24.03 668.62 24.19C668.38 24.33 668.18 24.53 668.02 24.79C667.88 25.03 667.81 25.34 667.81 25.72C667.81 26.08 667.94 26.37 668.2 26.59C668.48 26.81 668.84 27.01 669.28 27.19C669.72 27.35 670.21 27.51 670.75 27.67C671.29 27.81 671.83 27.98 672.37 28.18C672.83 28.36 673.28 28.56 673.72 28.78C674.16 29 674.54 29.27 674.86 29.59C675.2 29.91 675.47 30.29 675.67 30.73C675.87 31.17 675.97 31.7 675.97 32.32C675.97 33.22 675.77 33.99 675.37 34.63C674.97 35.27 674.45 35.8 673.81 36.22C673.17 36.64 672.43 36.94 671.59 37.12C670.77 37.32 669.94 37.42 669.1 37.42C668.2 37.42 667.36 37.33 666.58 37.15C665.8 36.99 665.12 36.71 664.54 36.31C663.96 35.89 663.5 35.34 663.16 34.66C662.82 33.96 662.64 33.08 662.62 32.02H665.86C665.82 33 666.13 33.7 666.79 34.12C667.45 34.52 668.28 34.72 669.28 34.72C669.64 34.72 670.01 34.69 670.39 34.63C670.77 34.55 671.12 34.43 671.44 34.27C671.76 34.11 672.02 33.89 672.22 33.61C672.44 33.31 672.55 32.94 672.55 32.5C672.55 32.1 672.4 31.77 672.1 31.51C671.82 31.25 671.45 31.03 670.99 30.85C670.55 30.65 670.04 30.47 669.46 30.31C668.9 30.15 668.35 29.97 667.81 29.77C667.35 29.61 666.91 29.42 666.49 29.2C666.09 28.98 665.73 28.72 665.41 28.42C665.09 28.1 664.84 27.73 664.66 27.31C664.48 26.89 664.39 26.39 664.39 25.81C664.39 24.97 664.57 24.25 664.93 23.65C665.31 23.05 665.8 22.56 666.4 22.18C667 21.8 667.68 21.52 668.44 21.34C669.2 21.16 669.98 21.07 670.78 21.07C671.62 21.07 672.41 21.15 673.15 21.31C673.89 21.45 674.53 21.71 675.07 22.09C675.63 22.47 676.06 22.98 676.36 23.62C676.68 24.26 676.83 25.06 676.81 26.02H673.57ZM691.07 16.84H694.4L693.44 21.49H696.53L695.99 24.04H692.9L691.31 31.63C691.23 31.97 691.16 32.29 691.1 32.59C691.04 32.89 691.01 33.13 691.01 33.31C691.01 33.65 691.08 33.93 691.22 34.15C691.38 34.35 691.72 34.45 692.24 34.45C692.5 34.45 692.78 34.45 693.08 34.45C693.4 34.43 693.73 34.38 694.07 34.3L693.5 36.82C693.06 36.92 692.59 37 692.09 37.06C691.59 37.12 691.12 37.15 690.68 37.15C690.06 37.15 689.55 37.07 689.15 36.91C688.75 36.75 688.43 36.54 688.19 36.28C687.97 36 687.81 35.69 687.71 35.35C687.63 34.99 687.59 34.63 687.59 34.27C687.59 33.97 687.61 33.64 687.65 33.28C687.71 32.92 687.76 32.67 687.8 32.53L689.57 24.04H686.87L687.41 21.49H690.11L691.07 16.84ZM705.29 23.77C704.41 23.77 703.64 23.99 702.98 24.43C702.34 24.87 701.8 25.43 701.36 26.11C700.92 26.77 700.59 27.51 700.37 28.33C700.17 29.15 700.07 29.95 700.07 30.73C700.07 31.87 700.35 32.82 700.91 33.58C701.49 34.34 702.4 34.72 703.64 34.72C704.52 34.72 705.28 34.51 705.92 34.09C706.58 33.65 707.13 33.1 707.57 32.44C708.01 31.76 708.33 31.01 708.53 30.19C708.75 29.35 708.86 28.54 708.86 27.76C708.86 26.62 708.57 25.67 707.99 24.91C707.43 24.15 706.53 23.77 705.29 23.77ZM703.43 37.42C701.27 37.42 699.6 36.84 698.42 35.68C697.24 34.5 696.65 32.82 696.65 30.64C696.65 29.36 696.86 28.15 697.28 27.01C697.7 25.85 698.29 24.83 699.05 23.95C699.83 23.07 700.76 22.37 701.84 21.85C702.94 21.33 704.16 21.07 705.5 21.07C707.66 21.07 709.33 21.64 710.51 22.78C711.69 23.9 712.28 25.55 712.28 27.73C712.28 29.09 712.08 30.36 711.68 31.54C711.28 32.72 710.69 33.75 709.91 34.63C709.15 35.49 708.22 36.17 707.12 36.67C706.04 37.17 704.81 37.42 703.43 37.42ZM733.463 15.58H737.423L741.143 37H737.333L736.463 31.33H727.943L724.643 37H720.623L733.463 15.58ZM734.753 19.36H734.693L729.533 28.48H736.073L734.753 19.36ZM754.9 26.62C754.94 25.66 754.68 24.95 754.12 24.49C753.56 24.01 752.8 23.77 751.84 23.77C750.98 23.77 750.23 23.99 749.59 24.43C748.95 24.87 748.42 25.43 748 26.11C747.58 26.79 747.26 27.54 747.04 28.36C746.84 29.16 746.74 29.93 746.74 30.67C746.74 31.25 746.8 31.79 746.92 32.29C747.04 32.77 747.23 33.19 747.49 33.55C747.77 33.91 748.13 34.2 748.57 34.42C749.01 34.62 749.55 34.72 750.19 34.72C751.21 34.72 752.04 34.45 752.68 33.91C753.34 33.37 753.81 32.62 754.09 31.66H757.51C756.95 33.66 756.01 35.12 754.69 36.04C753.37 36.96 751.68 37.42 749.62 37.42C748.6 37.42 747.7 37.26 746.92 36.94C746.14 36.62 745.48 36.17 744.94 35.59C744.42 34.99 744.02 34.29 743.74 33.49C743.46 32.67 743.32 31.77 743.32 30.79C743.32 29.49 743.52 28.25 743.92 27.07C744.32 25.89 744.9 24.86 745.66 23.98C746.42 23.08 747.34 22.37 748.42 21.85C749.52 21.33 750.76 21.07 752.14 21.07C753 21.07 753.81 21.19 754.57 21.43C755.33 21.67 755.99 22.02 756.55 22.48C757.11 22.94 757.55 23.52 757.87 24.22C758.19 24.92 758.34 25.72 758.32 26.62H754.9ZM764.4 16.84H767.73L766.77 21.49H769.86L769.32 24.04H766.23L764.64 31.63C764.56 31.97 764.49 32.29 764.43 32.59C764.37 32.89 764.34 33.13 764.34 33.31C764.34 33.65 764.41 33.93 764.55 34.15C764.71 34.35 765.05 34.45 765.57 34.45C765.83 34.45 766.11 34.45 766.41 34.45C766.73 34.43 767.06 34.38 767.4 34.3L766.83 36.82C766.39 36.92 765.92 37 765.42 37.06C764.92 37.12 764.45 37.15 764.01 37.15C763.39 37.15 762.88 37.07 762.48 36.91C762.08 36.75 761.76 36.54 761.52 36.28C761.3 36 761.14 35.69 761.04 35.35C760.96 34.99 760.92 34.63 760.92 34.27C760.92 33.97 760.94 33.64 760.98 33.28C761.04 32.92 761.09 32.67 761.13 32.53L762.9 24.04H760.2L760.74 21.49H763.44L764.4 16.84ZM773.7 15.58H777.09L776.43 18.82H773.04L773.7 15.58ZM772.47 21.49H775.89L772.68 37H769.26L772.47 21.49ZM785.856 23.77C784.976 23.77 784.206 23.99 783.546 24.43C782.906 24.87 782.366 25.43 781.926 26.11C781.486 26.77 781.156 27.51 780.936 28.33C780.736 29.15 780.636 29.95 780.636 30.73C780.636 31.87 780.916 32.82 781.476 33.58C782.056 34.34 782.966 34.72 784.206 34.72C785.086 34.72 785.846 34.51 786.486 34.09C787.146 33.65 787.696 33.1 788.136 32.44C788.576 31.76 788.896 31.01 789.096 30.19C789.316 29.35 789.426 28.54 789.426 27.76C789.426 26.62 789.136 25.67 788.556 24.91C787.996 24.15 787.096 23.77 785.856 23.77ZM783.996 37.42C781.836 37.42 780.166 36.84 778.986 35.68C777.806 34.5 777.216 32.82 777.216 30.64C777.216 29.36 777.426 28.15 777.846 27.01C778.266 25.85 778.856 24.83 779.616 23.95C780.396 23.07 781.326 22.37 782.406 21.85C783.506 21.33 784.726 21.07 786.066 21.07C788.226 21.07 789.896 21.64 791.076 22.78C792.256 23.9 792.846 25.55 792.846 27.73C792.846 29.09 792.646 30.36 792.246 31.54C791.846 32.72 791.256 33.75 790.476 34.63C789.716 35.49 788.786 36.17 787.686 36.67C786.606 37.17 785.376 37.42 783.996 37.42ZM797.49 21.49H800.7L800.22 23.74L800.28 23.8C800.9 22.94 801.67 22.27 802.59 21.79C803.53 21.31 804.54 21.07 805.62 21.07C807.18 21.07 808.32 21.44 809.04 22.18C809.78 22.92 810.15 23.92 810.15 25.18C810.15 25.46 810.14 25.78 810.12 26.14C810.1 26.5 810.06 26.82 810 27.1L807.93 37H804.51L806.49 27.43C806.55 27.17 806.6 26.92 806.64 26.68C806.7 26.44 806.73 26.21 806.73 25.99C806.73 25.87 806.72 25.69 806.7 25.45C806.7 25.19 806.63 24.94 806.49 24.7C806.35 24.44 806.11 24.22 805.77 24.04C805.45 23.86 804.98 23.77 804.36 23.77C803.68 23.77 803.07 23.92 802.53 24.22C802.01 24.5 801.54 24.85 801.12 25.27C800.72 25.67 800.37 26.17 800.07 26.77C799.79 27.35 799.58 27.96 799.44 28.6L797.7 37H794.28L797.49 21.49Z" fill="black"/>
<defs>
<linearGradient id="paint0_linear_20_267" x1="0" y1="27.5" x2="960" y2="27.5" gradientUnits="userSpaceOnUse">
<stop stop-color="#FF6B00" stop-opacity="0"/>
<stop offset="0.515" stop-color="#FF6B00"/>
</linearGradient>
</defs>
</svg>
